<svg version="1.1" viewBox="0.0 0.0 600.0 371.0" fill="none" stroke="none" stroke-linecap="square" stroke-miterlimit="10" width="600" height="371" xmlns:xlink="http://www.w3.org/1999/xlink" xmlns="http://www.w3.org/2000/svg"><path fill="#434343" d="M0 0L600.0 0L600.0 371.0L0 371.0L0 0Z" fill-rule="nonzero"/><path fill="#4c1130" d="M199.84885 63.140163C225.40565 34.756454 261.80594 18.55 300.0 18.55L300.0 153.31667Z" fill-rule="nonzero"/><path fill="#00441b" d="M165.9716 167.40363C161.97923 129.4188 174.29204 91.52388 199.84885 63.140163L300.0 153.31667Z" fill-rule="nonzero"/><path fill="#006d2c" d="M300.0 18.55C372.59903 18.55 432.1509 76.05858 434.68457 148.61337C437.21823 221.16818 381.82303 282.6908 309.40085 287.75504C236.97867 292.8193 173.56026 239.60493 165.9716 167.40363L300.0 153.31667Z" fill-rule="nonzero"/><path fill="#006d2c" d="M84.0 312.45C84.0 315.7637 81.313705 318.45 78.0 318.45C74.686295 318.45 72.0 315.7637 72.0 312.45C72.0 309.1363 74.686295 306.45 78.0 306.45C81.313705 306.45 84.0 309.1363 84.0 312.45Z" fill-rule="nonzero"/><path fill="#ffffff" d="M100.09375 315.65314L101.8125 315.8719Q101.53125 317.66876 100.359375 318.6844Q99.203125 319.6844 97.5 319.6844Q95.375 319.6844 94.078125 318.29376Q92.78125 316.90314 92.78125 314.3094Q92.78125 312.6219 93.328125 311.3719Q93.890625 310.10626 95.03125 309.48126Q96.171875 308.84064 97.515625 308.84064Q99.203125 308.84064 100.265625 309.7Q101.34375 310.5594 101.65625 312.1219L99.9375 312.3875Q99.703125 311.34064 99.078125 310.825Q98.453125 310.29376 97.578125 310.29376Q96.25 310.29376 95.421875 311.2469Q94.59375 312.2 94.59375 314.2469Q94.59375 316.34064 95.390625 317.29376Q96.1875 318.23126 97.484375 318.23126Q98.515625 318.23126 99.203125 317.60626Q99.90625 316.96564 100.09375 315.65314ZM102.671875 314.2625Q102.671875 311.3875 104.265625 309.9969Q105.609375 308.84064 107.53125 308.84064Q109.671875 308.84064 111.015625 310.2469Q112.375 311.65314 112.375 314.1219Q112.375 316.1219 111.78125 317.27814Q111.1875 318.41876 110.03125 319.0594Q108.890625 319.6844 107.53125 319.6844Q105.34375 319.6844 104.0 318.29376Q102.671875 316.8875 102.671875 314.2625ZM104.46875 314.2625Q104.46875 316.2625 105.328125 317.2469Q106.203125 318.23126 107.53125 318.23126Q108.84375 318.23126 109.703125 317.2469Q110.578125 316.2469 110.578125 314.2Q110.578125 312.27814 109.703125 311.29376Q108.828125 310.29376 107.53125 310.29376Q106.203125 310.29376 105.328125 311.29376Q104.46875 312.27814 104.46875 314.2625ZM114.3125 319.45L114.3125 309.075L115.90625 309.075L115.90625 310.5594Q117.046875 308.84064 119.203125 308.84064Q120.140625 308.84064 120.921875 309.1844Q121.71875 309.5125 122.109375 310.0594Q122.5 310.60626 122.65625 311.35626Q122.75 311.85626 122.75 313.075L122.75 319.45L120.984375 319.45L120.984375 313.1375Q120.984375 312.0594 120.78125 311.52814Q120.578125 310.9969 120.046875 310.6844Q119.53125 310.3719 118.828125 310.3719Q117.703125 310.3719 116.890625 311.09064Q116.078125 311.79376 116.078125 313.77814L116.078125 319.45L114.3125 319.45ZM127.203125 319.45L123.25 309.075L125.109375 309.075L127.34375 315.29376Q127.703125 316.29376 128.0 317.3719Q128.23438 316.5594 128.65625 315.40314L130.95312 309.075L132.76562 309.075L128.84375 319.45L127.203125 319.45ZM140.42188 316.10626L142.23438 316.34064Q141.8125 317.91876 140.64062 318.8094Q139.48438 319.6844 137.67188 319.6844Q135.40625 319.6844 134.0625 318.29376Q132.73438 316.8875 132.73438 314.35626Q132.73438 311.73126 134.07812 310.29376Q135.42188 308.84064 137.57812 308.84064Q139.65625 308.84064 140.96875 310.2625Q142.29688 311.66876 142.29688 314.2469Q142.29688 314.40314 142.28125 314.71564L134.54688 314.71564Q134.64062 316.41876 135.51562 317.325Q136.39062 318.23126 137.6875 318.23126Q138.65625 318.23126 139.32812 317.73126Q140.01562 317.21564 140.42188 316.10626ZM134.64062 313.2625L140.4375 313.2625Q140.32812 311.96564 139.78125 311.3094Q138.9375 310.29376 137.59375 310.29376Q136.39062 310.29376 135.5625 311.10626Q134.73438 311.90314 134.64062 313.2625ZM144.3125 319.45L144.3125 309.075L145.90625 309.075L145.90625 310.5594Q147.04688 308.84064 149.20312 308.84064Q150.14062 308.84064 150.92188 309.1844Q151.71875 309.5125 152.10938 310.0594Q152.5 310.60626 152.65625 311.35626Q152.75 311.85626 152.75 313.075L152.75 319.45L150.98438 319.45L150.98438 313.1375Q150.98438 312.0594 150.78125 311.52814Q150.57812 310.9969 150.04688 310.6844Q149.53125 310.3719 148.82812 310.3719Q147.70312 310.3719 146.89062 311.09064Q146.07812 311.79376 146.07812 313.77814L146.07812 319.45L144.3125 319.45ZM158.15625 317.8719L158.40625 319.4344Q157.67188 319.59064 157.07812 319.59064Q156.125 319.59064 155.59375 319.29376Q155.07812 318.98126 154.85938 318.4969Q154.64062 317.9969 154.64062 316.41876L154.64062 310.45L153.35938 310.45L153.35938 309.075L154.64062 309.075L154.64062 306.5125L156.39062 305.45L156.39062 309.075L158.15625 309.075L158.15625 310.45L156.39062 310.45L156.39062 316.5125Q156.39062 317.2625 156.48438 317.48126Q156.57812 317.6844 156.78125 317.825Q157.0 317.95 157.39062 317.95Q157.67188 317.95 158.15625 317.8719ZM160.32812 307.15314L160.32812 305.1375L162.09375 305.1375L162.09375 307.15314L160.32812 307.15314ZM160.32812 319.45L160.32812 309.075L162.09375 309.075L162.09375 319.45L160.32812 319.45ZM163.67188 314.2625Q163.67188 311.3875 165.26562 309.9969Q166.60938 308.84064 168.53125 308.84064Q170.67188 308.84064 172.01562 310.2469Q173.375 311.65314 173.375 314.1219Q173.375 316.1219 172.78125 317.27814Q172.1875 318.41876 171.03125 319.0594Q169.89062 319.6844 168.53125 319.6844Q166.34375 319.6844 165.0 318.29376Q163.67188 316.8875 163.67188 314.2625ZM165.46875 314.2625Q165.46875 316.2625 166.32812 317.2469Q167.20312 318.23126 168.53125 318.23126Q169.84375 318.23126 170.70312 317.2469Q171.57812 316.2469 171.57812 314.2Q171.57812 312.27814 170.70312 311.29376Q169.82812 310.29376 168.53125 310.29376Q167.20312 310.29376 166.32812 311.29376Q165.46875 312.27814 165.46875 314.2625ZM175.3125 319.45L175.3125 309.075L176.90625 309.075L176.90625 310.5594Q178.04688 308.84064 180.20312 308.84064Q181.14062 308.84064 181.92188 309.1844Q182.71875 309.5125 183.10938 310.0594Q183.5 310.60626 183.65625 311.35626Q183.75 311.85626 183.75 313.075L183.75 319.45L181.98438 319.45L181.98438 313.1375Q181.98438 312.0594 181.78125 311.52814Q181.57812 310.9969 181.04688 310.6844Q180.53125 310.3719 179.82812 310.3719Q178.70312 310.3719 177.89062 311.09064Q177.07812 311.79376 177.07812 313.77814L177.07812 319.45L175.3125 319.45ZM192.09375 318.16876Q191.10938 318.9969 190.20312 319.34064Q189.29688 319.6844 188.26562 319.6844Q186.5625 319.6844 185.64062 318.85626Q184.71875 318.0125 184.71875 316.71564Q184.71875 315.95 185.0625 315.325Q185.42188 314.7 185.98438 314.325Q186.54688 313.9344 187.25 313.73126Q187.76562 313.60626 188.8125 313.46564Q190.9375 313.21564 191.9375 312.8719Q191.95312 312.5125 191.95312 312.40314Q191.95312 311.34064 191.45312 310.8875Q190.78125 310.29376 189.45312 310.29376Q188.20312 310.29376 187.60938 310.73126Q187.03125 311.16876 186.75 312.27814L185.03125 312.04376Q185.26562 310.9344 185.79688 310.2625Q186.32812 309.575 187.34375 309.21564Q188.35938 308.84064 189.70312 308.84064Q191.03125 308.84064 191.85938 309.15314Q192.6875 309.46564 193.07812 309.95Q193.46875 310.41876 193.625 311.1375Q193.71875 311.59064 193.71875 312.7625L193.71875 315.10626Q193.71875 317.5594 193.82812 318.21564Q193.9375 318.85626 194.28125 319.45L192.4375 319.45Q192.17188 318.90314 192.09375 318.16876ZM191.9375 314.2469Q190.98438 314.6375 189.0625 314.90314Q187.98438 315.0594 187.53125 315.2625Q187.09375 315.45 186.84375 315.825Q186.59375 316.2 186.59375 316.66876Q186.59375 317.3719 187.125 317.84064Q187.65625 318.3094 188.6875 318.3094Q189.70312 318.3094 190.48438 317.8719Q191.28125 317.41876 191.65625 316.65314Q191.9375 316.04376 191.9375 314.8875L191.9375 314.2469ZM196.28125 319.45L196.28125 305.1375L198.03125 305.1375L198.03125 319.45L196.28125 319.45ZM213.09375 315.65314L214.8125 315.8719Q214.53125 317.66876 213.35938 318.6844Q212.20312 319.6844 210.5 319.6844Q208.375 319.6844 207.07812 318.29376Q205.78125 316.90314 205.78125 314.3094Q205.78125 312.6219 206.32812 311.3719Q206.89062 310.10626 208.03125 309.48126Q209.17188 308.84064 210.51562 308.84064Q212.20312 308.84064 213.26562 309.7Q214.34375 310.5594 214.65625 312.1219L212.9375 312.3875Q212.70312 311.34064 212.07812 310.825Q211.45312 310.29376 210.57812 310.29376Q209.25 310.29376 208.42188 311.2469Q207.59375 312.2 207.59375 314.2469Q207.59375 316.34064 208.39062 317.29376Q209.1875 318.23126 210.48438 318.23126Q211.51562 318.23126 212.20312 317.60626Q212.90625 316.96564 213.09375 315.65314ZM215.67188 314.2625Q215.67188 311.3875 217.26562 309.9969Q218.60938 308.84064 220.53125 308.84064Q222.67188 308.84064 224.01562 310.2469Q225.375 311.65314 225.375 314.1219Q225.375 316.1219 224.78125 317.27814Q224.1875 318.41876 223.03125 319.0594Q221.89062 319.6844 220.53125 319.6844Q218.34375 319.6844 217.0 318.29376Q215.67188 316.8875 215.67188 314.2625ZM217.46875 314.2625Q217.46875 316.2625 218.32812 317.2469Q219.20312 318.23126 220.53125 318.23126Q221.84375 318.23126 222.70312 317.2469Q223.57812 316.2469 223.57812 314.2Q223.57812 312.27814 222.70312 311.29376Q221.82812 310.29376 220.53125 310.29376Q219.20312 310.29376 218.32812 311.29376Q217.46875 312.27814 217.46875 314.2625ZM227.3125 319.45L227.3125 309.075L228.89062 309.075L228.89062 310.52814Q229.375 309.77814 230.1875 309.3094Q231.0 308.84064 232.03125 308.84064Q233.1875 308.84064 233.92188 309.325Q234.65625 309.79376 234.96875 310.65314Q236.20312 308.84064 238.17188 308.84064Q239.71875 308.84064 240.54688 309.7Q241.375 310.5594 241.375 312.325L241.375 319.45L239.625 319.45L239.625 312.91876Q239.625 311.85626 239.45312 311.40314Q239.28125 310.9344 238.82812 310.65314Q238.39062 310.3719 237.78125 310.3719Q236.6875 310.3719 235.95312 311.10626Q235.23438 311.825 235.23438 313.41876L235.23438 319.45L233.48438 319.45L233.48438 312.71564Q233.48438 311.54376 233.04688 310.96564Q232.625 310.3719 231.64062 310.3719Q230.90625 310.3719 230.26562 310.7625Q229.64062 311.15314 229.35938 311.90314Q229.07812 312.65314 229.07812 314.075L229.07812 319.45L227.3125 319.45ZM243.3125 319.45L243.3125 309.075L244.89062 309.075L244.89062 310.52814Q245.375 309.77814 246.1875 309.3094Q247.0 308.84064 248.03125 308.84064Q249.1875 308.84064 249.92188 309.325Q250.65625 309.79376 250.96875 310.65314Q252.20312 308.84064 254.17188 308.84064Q255.71875 308.84064 256.54688 309.7Q257.375 310.5594 257.375 312.325L257.375 319.45L255.625 319.45L255.625 312.91876Q255.625 311.85626 255.45312 311.40314Q255.28125 310.9344 254.82812 310.65314Q254.39062 310.3719 253.78125 310.3719Q252.6875 310.3719 251.95312 311.10626Q251.23438 311.825 251.23438 313.41876L251.23438 319.45L249.48438 319.45L249.48438 312.71564Q249.48438 311.54376 249.04688 310.96564Q248.625 310.3719 247.64062 310.3719Q246.90625 310.3719 246.26562 310.7625Q245.64062 311.15314 245.35938 311.90314Q245.07812 312.65314 245.07812 314.075L245.07812 319.45L243.3125 319.45ZM259.32812 307.15314L259.32812 305.1375L261.09375 305.1375L261.09375 307.15314L259.32812 307.15314ZM259.32812 319.45L259.32812 309.075L261.09375 309.075L261.09375 319.45L259.32812 319.45ZM267.15625 317.8719L267.40625 319.4344Q266.67188 319.59064 266.07812 319.59064Q265.125 319.59064 264.59375 319.29376Q264.07812 318.98126 263.85938 318.4969Q263.64062 317.9969 263.64062 316.41876L263.64062 310.45L262.35938 310.45L262.35938 309.075L263.64062 309.075L263.64062 306.5125L265.39062 305.45L265.39062 309.075L267.15625 309.075L267.15625 310.45L265.39062 310.45L265.39062 316.5125Q265.39062 317.2625 265.48438 317.48126Q265.57812 317.6844 265.78125 317.825Q266.0 317.95 266.39062 317.95Q266.67188 317.95 267.15625 317.8719ZM268.60938 316.35626L270.35938 316.075Q270.5 317.1219 271.17188 317.6844Q271.84375 318.23126 273.04688 318.23126Q274.25 318.23126 274.82812 317.7469Q275.42188 317.2469 275.42188 316.59064Q275.42188 315.9969 274.90625 315.65314Q274.54688 315.41876 273.10938 315.0594Q271.17188 314.5594 270.42188 314.21564Q269.6875 313.85626 269.29688 313.23126Q268.90625 312.59064 268.90625 311.825Q268.90625 311.1375 269.21875 310.54376Q269.54688 309.95 270.09375 309.5594Q270.5 309.2625 271.20312 309.0594Q271.92188 308.84064 272.73438 308.84064Q273.95312 308.84064 274.875 309.2Q275.79688 309.54376 276.23438 310.15314Q276.67188 310.7469 276.84375 311.7469L275.125 311.98126Q275.0 311.1844 274.4375 310.7469Q273.875 310.29376 272.85938 310.29376Q271.64062 310.29376 271.125 310.7Q270.60938 311.09064 270.60938 311.6219Q270.60938 311.96564 270.82812 312.2469Q271.03125 312.52814 271.5 312.71564Q271.76562 312.8094 273.04688 313.15314Q274.92188 313.65314 275.65625 313.98126Q276.39062 314.29376 276.8125 314.90314Q277.23438 315.4969 277.23438 316.40314Q277.23438 317.27814 276.71875 318.0594Q276.20312 318.84064 275.23438 319.2625Q274.26562 319.6844 273.04688 319.6844Q271.03125 319.6844 269.96875 318.84064Q268.90625 317.9969 268.60938 316.35626Z" fill-rule="nonzero"/><path fill="#00441b" d="M306.0 312.45C306.0 315.7637 303.31372 318.45 300.0 318.45C296.68628 318.45 294.0 315.7637 294.0 312.45C294.0 309.1363 296.68628 306.45 300.0 306.45C303.31372 306.45 306.0 309.1363 306.0 312.45Z" fill-rule="nonzero"/><path fill="#ffffff" d="M315.3125 323.41876L315.3125 309.075L316.92188 309.075L316.92188 310.41876Q317.48438 309.6375 318.1875 309.2469Q318.90625 308.84064 319.92188 308.84064Q321.25 308.84064 322.26562 309.52814Q323.28125 310.21564 323.79688 311.46564Q324.32812 312.7 324.32812 314.1844Q324.32812 315.77814 323.75 317.0594Q323.1875 318.325 322.09375 319.0125Q321.0 319.6844 319.79688 319.6844Q318.92188 319.6844 318.21875 319.3094Q317.53125 318.9344 317.07812 318.3719L317.07812 323.41876L315.3125 323.41876ZM316.90625 314.325Q316.90625 316.325 317.71875 317.27814Q318.53125 318.23126 319.6875 318.23126Q320.85938 318.23126 321.6875 317.2469Q322.53125 316.2625 322.53125 314.16876Q322.53125 312.2 321.70312 311.21564Q320.89062 310.21564 319.76562 310.21564Q318.64062 310.21564 317.76562 311.27814Q316.90625 312.325 316.90625 314.325ZM333.09375 318.16876Q332.10938 318.9969 331.20312 319.34064Q330.29688 319.6844 329.26562 319.6844Q327.5625 319.6844 326.64062 318.85626Q325.71875 318.0125 325.71875 316.71564Q325.71875 315.95 326.0625 315.325Q326.42188 314.7 326.98438 314.325Q327.54688 313.9344 328.25 313.73126Q328.76562 313.60626 329.8125 313.46564Q331.9375 313.21564 332.9375 312.8719Q332.95312 312.5125 332.95312 312.40314Q332.95312 311.34064 332.45312 310.8875Q331.78125 310.29376 330.45312 310.29376Q329.20312 310.29376 328.60938 310.73126Q328.03125 311.16876 327.75 312.27814L326.03125 312.04376Q326.26562 310.9344 326.79688 310.2625Q327.32812 309.575 328.34375 309.21564Q329.35938 308.84064 330.70312 308.84064Q332.03125 308.84064 332.85938 309.15314Q333.6875 309.46564 334.07812 309.95Q334.46875 310.41876 334.625 311.1375Q334.71875 311.59064 334.71875 312.7625L334.71875 315.10626Q334.71875 317.5594 334.82812 318.21564Q334.9375 318.85626 335.28125 319.45L333.4375 319.45Q333.17188 318.90314 333.09375 318.16876ZM332.9375 314.2469Q331.98438 314.6375 330.0625 314.90314Q328.98438 315.0594 328.53125 315.2625Q328.09375 315.45 327.84375 315.825Q327.59375 316.2 327.59375 316.66876Q327.59375 317.3719 328.125 317.84064Q328.65625 318.3094 329.6875 318.3094Q330.70312 318.3094 331.48438 317.8719Q332.28125 317.41876 332.65625 316.65314Q332.9375 316.04376 332.9375 314.8875L332.9375 314.2469ZM344.04688 319.45L344.04688 318.1375Q343.0625 319.6844 341.14062 319.6844Q339.90625 319.6844 338.85938 318.9969Q337.82812 318.3094 337.25 317.09064Q336.6875 315.8719 336.6875 314.27814Q336.6875 312.71564 337.20312 311.45Q337.71875 310.1844 338.75 309.5125Q339.79688 308.84064 341.0625 308.84064Q342.0 308.84064 342.73438 309.2469Q343.46875 309.6375 343.9375 310.2625L343.9375 305.1375L345.67188 305.1375L345.67188 319.45L344.04688 319.45ZM338.48438 314.27814Q338.48438 316.2625 339.32812 317.2469Q340.17188 318.23126 341.3125 318.23126Q342.46875 318.23126 343.26562 317.29376Q344.07812 316.35626 344.07812 314.41876Q344.07812 312.29376 343.25 311.29376Q342.4375 310.29376 341.23438 310.29376Q340.0625 310.29376 339.26562 311.2625Q338.48438 312.21564 338.48438 314.27814ZM348.29688 319.45L348.29688 309.075L349.875 309.075L349.875 310.65314Q350.48438 309.54376 351.0 309.2Q351.51562 308.84064 352.125 308.84064Q353.01562 308.84064 353.9375 309.40314L353.32812 311.04376Q352.6875 310.65314 352.04688 310.65314Q351.46875 310.65314 351.0 311.0125Q350.54688 311.35626 350.34375 311.96564Q350.0625 312.90314 350.0625 314.0125L350.0625 319.45L348.29688 319.45ZM362.09375 318.16876Q361.10938 318.9969 360.20312 319.34064Q359.29688 319.6844 358.26562 319.6844Q356.5625 319.6844 355.64062 318.85626Q354.71875 318.0125 354.71875 316.71564Q354.71875 315.95 355.0625 315.325Q355.42188 314.7 355.98438 314.325Q356.54688 313.9344 357.25 313.73126Q357.76562 313.60626 358.8125 313.46564Q360.9375 313.21564 361.9375 312.8719Q361.95312 312.5125 361.95312 312.40314Q361.95312 311.34064 361.45312 310.8875Q360.78125 310.29376 359.45312 310.29376Q358.20312 310.29376 357.60938 310.73126Q357.03125 311.16876 356.75 312.27814L355.03125 312.04376Q355.26562 310.9344 355.79688 310.2625Q356.32812 309.575 357.34375 309.21564Q358.35938 308.84064 359.70312 308.84064Q361.03125 308.84064 361.85938 309.15314Q362.6875 309.46564 363.07812 309.95Q363.46875 310.41876 363.625 311.1375Q363.71875 311.59064 363.71875 312.7625L363.71875 315.10626Q363.71875 317.5594 363.82812 318.21564Q363.9375 318.85626 364.28125 319.45L362.4375 319.45Q362.17188 318.90314 362.09375 318.16876ZM361.9375 314.2469Q360.98438 314.6375 359.0625 314.90314Q357.98438 315.0594 357.53125 315.2625Q357.09375 315.45 356.84375 315.825Q356.59375 316.2 356.59375 316.66876Q356.59375 317.3719 357.125 317.84064Q357.65625 318.3094 358.6875 318.3094Q359.70312 318.3094 360.48438 317.8719Q361.28125 317.41876 361.65625 316.65314Q361.9375 316.04376 361.9375 314.8875L361.9375 314.2469ZM356.23438 307.54376Q356.23438 306.52814 356.79688 305.91876Q357.35938 305.325 358.21875 305.325Q358.82812 305.325 359.875 305.84064Q360.45312 306.1375 360.79688 306.1375Q361.10938 306.1375 361.26562 305.96564Q361.4375 305.79376 361.5 305.29376L362.78125 305.29376Q362.75 306.40314 362.21875 306.96564Q361.6875 307.5125 360.85938 307.5125Q360.25 307.5125 359.23438 306.96564Q358.57812 306.6219 358.28125 306.6219Q357.95312 306.6219 357.75 306.85626Q357.53125 307.09064 357.54688 307.54376L356.23438 307.54376ZM365.67188 314.2625Q365.67188 311.3875 367.26562 309.9969Q368.60938 308.84064 370.53125 308.84064Q372.67188 308.84064 374.01562 310.2469Q375.375 311.65314 375.375 314.1219Q375.375 316.1219 374.78125 317.27814Q374.1875 318.41876 373.03125 319.0594Q371.89062 319.6844 370.53125 319.6844Q368.34375 319.6844 367.0 318.29376Q365.67188 316.8875 365.67188 314.2625ZM367.46875 314.2625Q367.46875 316.2625 368.32812 317.2469Q369.20312 318.23126 370.53125 318.23126Q371.84375 318.23126 372.70312 317.2469Q373.57812 316.2469 373.57812 314.2Q373.57812 312.27814 372.70312 311.29376Q371.82812 310.29376 370.53125 310.29376Q369.20312 310.29376 368.32812 311.29376Q367.46875 312.27814 367.46875 314.2625ZM390.09375 315.65314L391.8125 315.8719Q391.53125 317.66876 390.35938 318.6844Q389.20312 319.6844 387.5 319.6844Q385.375 319.6844 384.07812 318.29376Q382.78125 316.90314 382.78125 314.3094Q382.78125 312.6219 383.32812 311.3719Q383.89062 310.10626 385.03125 309.48126Q386.17188 308.84064 387.51562 308.84064Q389.20312 308.84064 390.26562 309.7Q391.34375 310.5594 391.65625 312.1219L389.9375 312.3875Q389.70312 311.34064 389.07812 310.825Q388.45312 310.29376 387.57812 310.29376Q386.25 310.29376 385.42188 311.2469Q384.59375 312.2 384.59375 314.2469Q384.59375 316.34064 385.39062 317.29376Q386.1875 318.23126 387.48438 318.23126Q388.51562 318.23126 389.20312 317.60626Q389.90625 316.96564 390.09375 315.65314ZM392.67188 314.2625Q392.67188 311.3875 394.26562 309.9969Q395.60938 308.84064 397.53125 308.84064Q399.67188 308.84064 401.01562 310.2469Q402.375 311.65314 402.375 314.1219Q402.375 316.1219 401.78125 317.27814Q401.1875 318.41876 400.03125 319.0594Q398.89062 319.6844 397.53125 319.6844Q395.34375 319.6844 394.0 318.29376Q392.67188 316.8875 392.67188 314.2625ZM394.46875 314.2625Q394.46875 316.2625 395.32812 317.2469Q396.20312 318.23126 397.53125 318.23126Q398.84375 318.23126 399.70312 317.2469Q400.57812 316.2469 400.57812 314.2Q400.57812 312.27814 399.70312 311.29376Q398.82812 310.29376 397.53125 310.29376Q396.20312 310.29376 395.32812 311.29376Q394.46875 312.27814 394.46875 314.2625ZM404.3125 319.45L404.3125 309.075L405.89062 309.075L405.89062 310.52814Q406.375 309.77814 407.1875 309.3094Q408.0 308.84064 409.03125 308.84064Q410.1875 308.84064 410.92188 309.325Q411.65625 309.79376 411.96875 310.65314Q413.20312 308.84064 415.17188 308.84064Q416.71875 308.84064 417.54688 309.7Q418.375 310.5594 418.375 312.325L418.375 319.45L416.625 319.45L416.625 312.91876Q416.625 311.85626 416.45312 311.40314Q416.28125 310.9344 415.82812 310.65314Q415.39062 310.3719 414.78125 310.3719Q413.6875 310.3719 412.95312 311.10626Q412.23438 311.825 412.23438 313.41876L412.23438 319.45L410.48438 319.45L410.48438 312.71564Q410.48438 311.54376 410.04688 310.96564Q409.625 310.3719 408.64062 310.3719Q407.90625 310.3719 407.26562 310.7625Q406.64062 311.15314 406.35938 311.90314Q406.07812 312.65314 406.07812 314.075L406.07812 319.45L404.3125 319.45ZM429.20312 319.45L425.25 309.075L427.10938 309.075L429.34375 315.29376Q429.70312 316.29376 430.0 317.3719Q430.23438 316.5594 430.65625 315.40314L432.95312 309.075L434.76562 309.075L430.84375 319.45L429.20312 319.45ZM442.42188 316.10626L444.23438 316.34064Q443.8125 317.91876 442.64062 318.8094Q441.48438 319.6844 439.67188 319.6844Q437.40625 319.6844 436.0625 318.29376Q434.73438 316.8875 434.73438 314.35626Q434.73438 311.73126 436.07812 310.29376Q437.42188 308.84064 439.57812 308.84064Q441.65625 308.84064 442.96875 310.2625Q444.29688 311.66876 444.29688 314.2469Q444.29688 314.40314 444.28125 314.71564L436.54688 314.71564Q436.64062 316.41876 437.51562 317.325Q438.39062 318.23126 439.6875 318.23126Q440.65625 318.23126 441.32812 317.73126Q442.01562 317.21564 442.42188 316.10626ZM436.64062 313.2625L442.4375 313.2625Q442.32812 311.96564 441.78125 311.3094Q440.9375 310.29376 439.59375 310.29376Q438.39062 310.29376 437.5625 311.10626Q436.73438 311.90314 436.64062 313.2625ZM446.29688 319.45L446.29688 309.075L447.875 309.075L447.875 310.65314Q448.48438 309.54376 449.0 309.2Q449.51562 308.84064 450.125 308.84064Q451.01562 308.84064 451.9375 309.40314L451.32812 311.04376Q450.6875 310.65314 450.04688 310.65314Q449.46875 310.65314 449.0 311.0125Q448.54688 311.35626 448.34375 311.96564Q448.0625 312.90314 448.0625 314.0125L448.0625 319.45L446.29688 319.45ZM454.9375 319.45L453.3125 319.45L453.3125 305.1375L455.0625 305.1375L455.0625 310.2469Q456.1875 308.84064 457.90625 308.84064Q458.85938 308.84064 459.71875 309.23126Q460.57812 309.6219 461.125 310.325Q461.67188 311.0125 461.98438 311.9969Q462.29688 312.98126 462.29688 314.10626Q462.29688 316.77814 460.98438 318.23126Q459.67188 319.6844 457.82812 319.6844Q455.98438 319.6844 454.9375 318.15314L454.9375 319.45ZM454.92188 314.1844Q454.92188 316.04376 455.42188 316.8875Q456.26562 318.23126 457.67188 318.23126Q458.82812 318.23126 459.65625 317.23126Q460.5 316.23126 460.5 314.2469Q460.5 312.21564 459.6875 311.2625Q458.89062 310.29376 457.75 310.29376Q456.59375 310.29376 455.75 311.29376Q454.92188 312.29376 454.92188 314.1844ZM463.67188 314.2625Q463.67188 311.3875 465.26562 309.9969Q466.60938 308.84064 468.53125 308.84064Q470.67188 308.84064 472.01562 310.2469Q473.375 311.65314 473.375 314.1219Q473.375 316.1219 472.78125 317.27814Q472.1875 318.41876 471.03125 319.0594Q469.89062 319.6844 468.53125 319.6844Q466.34375 319.6844 465.0 318.29376Q463.67188 316.8875 463.67188 314.2625ZM465.46875 314.2625Q465.46875 316.2625 466.32812 317.2469Q467.20312 318.23126 468.53125 318.23126Q469.84375 318.23126 470.70312 317.2469Q471.57812 316.2469 471.57812 314.2Q471.57812 312.27814 470.70312 311.29376Q469.82812 310.29376 468.53125 310.29376Q467.20312 310.29376 466.32812 311.29376Q465.46875 312.27814 465.46875 314.2625ZM474.0 319.7L478.15625 304.8875L479.5625 304.8875L475.42188 319.7L474.0 319.7ZM481.3125 323.41876L481.3125 309.075L482.92188 309.075L482.92188 310.41876Q483.48438 309.6375 484.1875 309.2469Q484.90625 308.84064 485.92188 308.84064Q487.25 308.84064 488.26562 309.52814Q489.28125 310.21564 489.79688 311.46564Q490.32812 312.7 490.32812 314.1844Q490.32812 315.77814 489.75 317.0594Q489.1875 318.325 488.09375 319.0125Q487.0 319.6844 485.79688 319.6844Q484.92188 319.6844 484.21875 319.3094Q483.53125 318.9344 483.07812 318.3719L483.07812 323.41876L481.3125 323.41876ZM482.90625 314.325Q482.90625 316.325 483.71875 317.27814Q484.53125 318.23126 485.6875 318.23126Q486.85938 318.23126 487.6875 317.2469Q488.53125 316.2625 488.53125 314.16876Q488.53125 312.2 487.70312 311.21564Q486.89062 310.21564 485.76562 310.21564Q484.64062 310.21564 483.76562 311.27814Q482.90625 312.325 482.90625 314.325ZM492.29688 319.45L492.29688 309.075L493.875 309.075L493.875 310.65314Q494.48438 309.54376 495.0 309.2Q495.51562 308.84064 496.125 308.84064Q497.01562 308.84064 497.9375 309.40314L497.32812 311.04376Q496.6875 310.65314 496.04688 310.65314Q495.46875 310.65314 495.0 311.0125Q494.54688 311.35626 494.34375 311.96564Q494.0625 312.90314 494.0625 314.0125L494.0625 319.45L492.29688 319.45ZM506.42188 316.10626L508.23438 316.34064Q507.8125 317.91876 506.64062 318.8094Q505.48438 319.6844 503.67188 319.6844Q501.40625 319.6844 500.0625 318.29376Q498.73438 316.8875 498.73438 314.35626Q498.73438 311.73126 500.07812 310.29376Q501.42188 308.84064 503.57812 308.84064Q505.65625 308.84064 506.96875 310.2625Q508.29688 311.66876 508.29688 314.2469Q508.29688 314.40314 508.28125 314.71564L500.54688 314.71564Q500.64062 316.41876 501.51562 317.325Q502.39062 318.23126 503.6875 318.23126Q504.65625 318.23126 505.32812 317.73126Q506.01562 317.21564 506.42188 316.10626ZM500.64062 313.2625L506.4375 313.2625Q506.32812 311.96564 505.78125 311.3094Q504.9375 310.29376 503.59375 310.29376Q502.39062 310.29376 501.5625 311.10626Q500.73438 311.90314 500.64062 313.2625ZM510.73438 319.45L510.73438 310.45L509.1875 310.45L509.1875 309.075L510.73438 309.075L510.73438 307.98126Q510.73438 306.9344 510.92188 306.41876Q511.17188 305.73126 511.8125 305.3094Q512.4531 304.8875 513.6094 304.8875Q514.3594 304.8875 515.25 305.0594L514.9844 306.59064Q514.4375 306.4969 513.9531 306.4969Q513.15625 306.4969 512.8125 306.84064Q512.4844 307.1844 512.4844 308.1219L512.4844 309.075L514.5156 309.075L514.5156 310.45L512.4844 310.45L512.4844 319.45L510.73438 319.45ZM516.3281 307.15314L516.3281 305.1375L518.09375 305.1375L518.09375 307.15314L516.3281 307.15314ZM516.3281 319.45L516.3281 309.075L518.09375 309.075L518.09375 319.45L516.3281 319.45ZM519.1406 319.45L522.9375 314.0594L519.4375 309.075L521.625 309.075L523.21875 311.5125Q523.6719 312.2 523.9375 312.66876Q524.375 312.02814 524.7344 311.52814L526.4844 309.075L528.5781 309.075L525.0 313.96564L528.8594 319.45L526.7031 319.45L524.5625 316.23126L524.0 315.35626L521.28125 319.45L519.1406 319.45Z" fill-rule="nonzero"/><path fill="#4c1130" d="M210.0 340.45C210.0 343.7637 207.3137 346.45 204.0 346.45C200.6863 346.45 198.0 343.7637 198.0 340.45C198.0 337.1363 200.6863 334.45 204.0 334.45C207.3137 334.45 210.0 337.1363 210.0 340.45Z" fill-rule="nonzero"/><path fill="#ffffff" d="M226.09375 343.65314L227.8125 343.8719Q227.53125 345.66876 226.35938 346.6844Q225.20312 347.6844 223.5 347.6844Q221.375 347.6844 220.07812 346.29376Q218.78125 344.90314 218.78125 342.3094Q218.78125 340.6219 219.32812 339.3719Q219.89062 338.10626 221.03125 337.48126Q222.17188 336.84064 223.51562 336.84064Q225.20312 336.84064 226.26562 337.7Q227.34375 338.5594 227.65625 340.1219L225.9375 340.3875Q225.70312 339.34064 225.07812 338.825Q224.45312 338.29376 223.57812 338.29376Q222.25 338.29376 221.42188 339.2469Q220.59375 340.2 220.59375 342.2469Q220.59375 344.34064 221.39062 345.29376Q222.1875 346.23126 223.48438 346.23126Q224.51562 346.23126 225.20312 345.60626Q225.90625 344.96564 226.09375 343.65314ZM228.67188 342.2625Q228.67188 339.3875 230.26562 337.9969Q231.60938 336.84064 233.53125 336.84064Q235.67188 336.84064 237.01562 338.2469Q238.375 339.65314 238.375 342.1219Q238.375 344.1219 237.78125 345.27814Q237.1875 346.41876 236.03125 347.0594Q234.89062 347.6844 233.53125 347.6844Q231.34375 347.6844 230.0 346.29376Q228.67188 344.8875 228.67188 342.2625ZM230.46875 342.2625Q230.46875 344.2625 231.32812 345.2469Q232.20312 346.23126 233.53125 346.23126Q234.84375 346.23126 235.70312 345.2469Q236.57812 344.2469 236.57812 342.2Q236.57812 340.27814 235.70312 339.29376Q234.82812 338.29376 233.53125 338.29376Q232.20312 338.29376 231.32812 339.29376Q230.46875 340.27814 230.46875 342.2625ZM240.3125 347.45L240.3125 337.075L241.89062 337.075L241.89062 338.52814Q242.375 337.77814 243.1875 337.3094Q244.0 336.84064 245.03125 336.84064Q246.1875 336.84064 246.92188 337.325Q247.65625 337.79376 247.96875 338.65314Q249.20312 336.84064 251.17188 336.84064Q252.71875 336.84064 253.54688 337.7Q254.375 338.5594 254.375 340.325L254.375 347.45L252.625 347.45L252.625 340.91876Q252.625 339.85626 252.45312 339.40314Q252.28125 338.9344 251.82812 338.65314Q251.39062 338.3719 250.78125 338.3719Q249.6875 338.3719 248.95312 339.10626Q248.23438 339.825 248.23438 341.41876L248.23438 347.45L246.48438 347.45L246.48438 340.71564Q246.48438 339.54376 246.04688 338.96564Q245.625 338.3719 244.64062 338.3719Q243.90625 338.3719 243.26562 338.7625Q242.64062 339.15314 242.35938 339.90314Q242.07812 340.65314 242.07812 342.075L242.07812 347.45L240.3125 347.45ZM256.3125 347.45L256.3125 337.075L257.89062 337.075L257.89062 338.52814Q258.375 337.77814 259.1875 337.3094Q260.0 336.84064 261.03125 336.84064Q262.1875 336.84064 262.92188 337.325Q263.65625 337.79376 263.96875 338.65314Q265.20312 336.84064 267.17188 336.84064Q268.71875 336.84064 269.54688 337.7Q270.375 338.5594 270.375 340.325L270.375 347.45L268.625 347.45L268.625 340.91876Q268.625 339.85626 268.45312 339.40314Q268.28125 338.9344 267.82812 338.65314Q267.39062 338.3719 266.78125 338.3719Q265.6875 338.3719 264.95312 339.10626Q264.23438 339.825 264.23438 341.41876L264.23438 347.45L262.48438 347.45L262.48438 340.71564Q262.48438 339.54376 262.04688 338.96564Q261.625 338.3719 260.64062 338.3719Q259.90625 338.3719 259.26562 338.7625Q258.64062 339.15314 258.35938 339.90314Q258.07812 340.65314 258.07812 342.075L258.07812 347.45L256.3125 347.45ZM272.32812 335.15314L272.32812 333.1375L274.09375 333.1375L274.09375 335.15314L272.32812 335.15314ZM272.32812 347.45L272.32812 337.075L274.09375 337.075L274.09375 347.45L272.32812 347.45ZM280.15625 345.8719L280.40625 347.4344Q279.67188 347.59064 279.07812 347.59064Q278.125 347.59064 277.59375 347.29376Q277.07812 346.98126 276.85938 346.4969Q276.64062 345.9969 276.64062 344.41876L276.64062 338.45L275.35938 338.45L275.35938 337.075L276.64062 337.075L276.64062 334.5125L278.39062 333.45L278.39062 337.075L280.15625 337.075L280.15625 338.45L278.39062 338.45L278.39062 344.5125Q278.39062 345.2625 278.48438 345.48126Q278.57812 345.6844 278.78125 345.825Q279.0 345.95 279.39062 345.95Q279.67188 345.95 280.15625 345.8719ZM281.60938 344.35626L283.35938 344.075Q283.5 345.1219 284.17188 345.6844Q284.84375 346.23126 286.04688 346.23126Q287.25 346.23126 287.82812 345.7469Q288.42188 345.2469 288.42188 344.59064Q288.42188 343.9969 287.90625 343.65314Q287.54688 343.41876 286.10938 343.0594Q284.17188 342.5594 283.42188 342.21564Q282.6875 341.85626 282.29688 341.23126Q281.90625 340.59064 281.90625 339.825Q281.90625 339.1375 282.21875 338.54376Q282.54688 337.95 283.09375 337.5594Q283.5 337.2625 284.20312 337.0594Q284.92188 336.84064 285.73438 336.84064Q286.95312 336.84064 287.875 337.2Q288.79688 337.54376 289.23438 338.15314Q289.67188 338.7469 289.84375 339.7469L288.125 339.98126Q288.0 339.1844 287.4375 338.7469Q286.875 338.29376 285.85938 338.29376Q284.64062 338.29376 284.125 338.7Q283.60938 339.09064 283.60938 339.6219Q283.60938 339.96564 283.82812 340.2469Q284.03125 340.52814 284.5 340.71564Q284.76562 340.8094 286.04688 341.15314Q287.92188 341.65314 288.65625 341.98126Q289.39062 342.29376 289.8125 342.90314Q290.23438 343.4969 290.23438 344.40314Q290.23438 345.27814 289.71875 346.0594Q289.20312 346.84064 288.23438 347.2625Q287.26562 347.6844 286.04688 347.6844Q284.03125 347.6844 282.96875 346.84064Q281.90625 345.9969 281.60938 344.35626ZM297.60938 344.35626L299.35938 344.075Q299.5 345.1219 300.17188 345.6844Q300.84375 346.23126 302.04688 346.23126Q303.25 346.23126 303.82812 345.7469Q304.42188 345.2469 304.42188 344.59064Q304.42188 343.9969 303.90625 343.65314Q303.54688 343.41876 302.10938 343.0594Q300.17188 342.5594 299.42188 342.21564Q298.6875 341.85626 298.29688 341.23126Q297.90625 340.59064 297.90625 339.825Q297.90625 339.1375 298.21875 338.54376Q298.54688 337.95 299.09375 337.5594Q299.5 337.2625 300.20312 337.0594Q300.92188 336.84064 301.73438 336.84064Q302.95312 336.84064 303.875 337.2Q304.79688 337.54376 305.23438 338.15314Q305.67188 338.7469 305.84375 339.7469L304.125 339.98126Q304.0 339.1844 303.4375 338.7469Q302.875 338.29376 301.85938 338.29376Q300.64062 338.29376 300.125 338.7Q299.60938 339.09064 299.60938 339.6219Q299.60938 339.96564 299.82812 340.2469Q300.03125 340.52814 300.5 340.71564Q300.76562 340.8094 302.04688 341.15314Q303.92188 341.65314 304.65625 341.98126Q305.39062 342.29376 305.8125 342.90314Q306.23438 343.4969 306.23438 344.40314Q306.23438 345.27814 305.71875 346.0594Q305.20312 346.84064 304.23438 347.2625Q303.26562 347.6844 302.04688 347.6844Q300.03125 347.6844 298.96875 346.84064Q297.90625 345.9969 297.60938 344.35626ZM315.42188 344.10626L317.23438 344.34064Q316.8125 345.91876 315.64062 346.8094Q314.48438 347.6844 312.67188 347.6844Q310.40625 347.6844 309.0625 346.29376Q307.73438 344.8875 307.73438 342.35626Q307.73438 339.73126 309.07812 338.29376Q310.42188 336.84064 312.57812 336.84064Q314.65625 336.84064 315.96875 338.2625Q317.29688 339.66876 317.29688 342.2469Q317.29688 342.40314 317.28125 342.71564L309.54688 342.71564Q309.64062 344.41876 310.51562 345.325Q311.39062 346.23126 312.6875 346.23126Q313.65625 346.23126 314.32812 345.73126Q315.01562 345.21564 315.42188 344.10626ZM309.64062 341.2625L315.4375 341.2625Q315.32812 339.96564 314.78125 339.3094Q313.9375 338.29376 312.59375 338.29376Q311.39062 338.29376 310.5625 339.10626Q309.73438 339.90314 309.64062 341.2625ZM319.3125 347.45L319.3125 337.075L320.89062 337.075L320.89062 338.52814Q321.375 337.77814 322.1875 337.3094Q323.0 336.84064 324.03125 336.84064Q325.1875 336.84064 325.92188 337.325Q326.65625 337.79376 326.96875 338.65314Q328.20312 336.84064 330.17188 336.84064Q331.71875 336.84064 332.54688 337.7Q333.375 338.5594 333.375 340.325L333.375 347.45L331.625 347.45L331.625 340.91876Q331.625 339.85626 331.45312 339.40314Q331.28125 338.9344 330.82812 338.65314Q330.39062 338.3719 329.78125 338.3719Q328.6875 338.3719 327.95312 339.10626Q327.23438 339.825 327.23438 341.41876L327.23438 347.45L325.48438 347.45L325.48438 340.71564Q325.48438 339.54376 325.04688 338.96564Q324.625 338.3719 323.64062 338.3719Q322.90625 338.3719 322.26562 338.7625Q321.64062 339.15314 321.35938 339.90314Q321.07812 340.65314 321.07812 342.075L321.07812 347.45L319.3125 347.45ZM341.3125 351.41876L341.3125 337.075L342.92188 337.075L342.92188 338.41876Q343.48438 337.6375 344.1875 337.2469Q344.90625 336.84064 345.92188 336.84064Q347.25 336.84064 348.26562 337.52814Q349.28125 338.21564 349.79688 339.46564Q350.32812 340.7 350.32812 342.1844Q350.32812 343.77814 349.75 345.0594Q349.1875 346.325 348.09375 347.0125Q347.0 347.6844 345.79688 347.6844Q344.92188 347.6844 344.21875 347.3094Q343.53125 346.9344 343.07812 346.3719L343.07812 351.41876L341.3125 351.41876ZM342.90625 342.325Q342.90625 344.325 343.71875 345.27814Q344.53125 346.23126 345.6875 346.23126Q346.85938 346.23126 347.6875 345.2469Q348.53125 344.2625 348.53125 342.16876Q348.53125 340.2 347.70312 339.21564Q346.89062 338.21564 345.76562 338.21564Q344.64062 338.21564 343.76562 339.27814Q342.90625 340.325 342.90625 342.325ZM359.09375 346.16876Q358.10938 346.9969 357.20312 347.34064Q356.29688 347.6844 355.26562 347.6844Q353.5625 347.6844 352.64062 346.85626Q351.71875 346.0125 351.71875 344.71564Q351.71875 343.95 352.0625 343.325Q352.42188 342.7 352.98438 342.325Q353.54688 341.9344 354.25 341.73126Q354.76562 341.60626 355.8125 341.46564Q357.9375 341.21564 358.9375 340.8719Q358.95312 340.5125 358.95312 340.40314Q358.95312 339.34064 358.45312 338.8875Q357.78125 338.29376 356.45312 338.29376Q355.20312 338.29376 354.60938 338.73126Q354.03125 339.16876 353.75 340.27814L352.03125 340.04376Q352.26562 338.9344 352.79688 338.2625Q353.32812 337.575 354.34375 337.21564Q355.35938 336.84064 356.70312 336.84064Q358.03125 336.84064 358.85938 337.15314Q359.6875 337.46564 360.07812 337.95Q360.46875 338.41876 360.625 339.1375Q360.71875 339.59064 360.71875 340.7625L360.71875 343.10626Q360.71875 345.5594 360.82812 346.21564Q360.9375 346.85626 361.28125 347.45L359.4375 347.45Q359.17188 346.90314 359.09375 346.16876ZM358.9375 342.2469Q357.98438 342.6375 356.0625 342.90314Q354.98438 343.0594 354.53125 343.2625Q354.09375 343.45 353.84375 343.825Q353.59375 344.2 353.59375 344.66876Q353.59375 345.3719 354.125 345.84064Q354.65625 346.3094 355.6875 346.3094Q356.70312 346.3094 357.48438 345.8719Q358.28125 345.41876 358.65625 344.65314Q358.9375 344.04376 358.9375 342.8875L358.9375 342.2469ZM370.04688 347.45L370.04688 346.1375Q369.0625 347.6844 367.14062 347.6844Q365.90625 347.6844 364.85938 346.9969Q363.82812 346.3094 363.25 345.09064Q362.6875 343.8719 362.6875 342.27814Q362.6875 340.71564 363.20312 339.45Q363.71875 338.1844 364.75 337.5125Q365.79688 336.84064 367.0625 336.84064Q368.0 336.84064 368.73438 337.2469Q369.46875 337.6375 369.9375 338.2625L369.9375 333.1375L371.67188 333.1375L371.67188 347.45L370.04688 347.45ZM364.48438 342.27814Q364.48438 344.2625 365.32812 345.2469Q366.17188 346.23126 367.3125 346.23126Q368.46875 346.23126 369.26562 345.29376Q370.07812 344.35626 370.07812 342.41876Q370.07812 340.29376 369.25 339.29376Q368.4375 338.29376 367.23438 338.29376Q366.0625 338.29376 365.26562 339.2625Q364.48438 340.21564 364.48438 342.27814ZM374.29688 347.45L374.29688 337.075L375.875 337.075L375.875 338.65314Q376.48438 337.54376 377.0 337.2Q377.51562 336.84064 378.125 336.84064Q379.01562 336.84064 379.9375 337.40314L379.32812 339.04376Q378.6875 338.65314 378.04688 338.65314Q377.46875 338.65314 377.0 339.0125Q376.54688 339.35626 376.34375 339.96564Q376.0625 340.90314 376.0625 342.0125L376.0625 347.45L374.29688 347.45ZM388.09375 346.16876Q387.10938 346.9969 386.20312 347.34064Q385.29688 347.6844 384.26562 347.6844Q382.5625 347.6844 381.64062 346.85626Q380.71875 346.0125 380.71875 344.71564Q380.71875 343.95 381.0625 343.325Q381.42188 342.7 381.98438 342.325Q382.54688 341.9344 383.25 341.73126Q383.76562 341.60626 384.8125 341.46564Q386.9375 341.21564 387.9375 340.8719Q387.95312 340.5125 387.95312 340.40314Q387.95312 339.34064 387.45312 338.8875Q386.78125 338.29376 385.45312 338.29376Q384.20312 338.29376 383.60938 338.73126Q383.03125 339.16876 382.75 340.27814L381.03125 340.04376Q381.26562 338.9344 381.79688 338.2625Q382.32812 337.575 383.34375 337.21564Q384.35938 336.84064 385.70312 336.84064Q387.03125 336.84064 387.85938 337.15314Q388.6875 337.46564 389.07812 337.95Q389.46875 338.41876 389.625 339.1375Q389.71875 339.59064 389.71875 340.7625L389.71875 343.10626Q389.71875 345.5594 389.82812 346.21564Q389.9375 346.85626 390.28125 347.45L388.4375 347.45Q388.17188 346.90314 388.09375 346.16876ZM387.9375 342.2469Q386.98438 342.6375 385.0625 342.90314Q383.98438 343.0594 383.53125 343.2625Q383.09375 343.45 382.84375 343.825Q382.59375 344.2 382.59375 344.66876Q382.59375 345.3719 383.125 345.84064Q383.65625 346.3094 384.6875 346.3094Q385.70312 346.3094 386.48438 345.8719Q387.28125 345.41876 387.65625 344.65314Q387.9375 344.04376 387.9375 342.8875L387.9375 342.2469ZM382.23438 335.54376Q382.23438 334.52814 382.79688 333.91876Q383.35938 333.325 384.21875 333.325Q384.82812 333.325 385.875 333.84064Q386.45312 334.1375 386.79688 334.1375Q387.10938 334.1375 387.26562 333.96564Q387.4375 333.79376 387.5 333.29376L388.78125 333.29376Q388.75 334.40314 388.21875 334.96564Q387.6875 335.5125 386.85938 335.5125Q386.25 335.5125 385.23438 334.96564Q384.57812 334.6219 384.28125 334.6219Q383.95312 334.6219 383.75 334.85626Q383.53125 335.09064 383.54688 335.54376L382.23438 335.54376ZM391.67188 342.2625Q391.67188 339.3875 393.26562 337.9969Q394.60938 336.84064 396.53125 336.84064Q398.67188 336.84064 400.01562 338.2469Q401.375 339.65314 401.375 342.1219Q401.375 344.1219 400.78125 345.27814Q400.1875 346.41876 399.03125 347.0594Q397.89062 347.6844 396.53125 347.6844Q394.34375 347.6844 393.0 346.29376Q391.67188 344.8875 391.67188 342.2625ZM393.46875 342.2625Q393.46875 344.2625 394.32812 345.2469Q395.20312 346.23126 396.53125 346.23126Q397.84375 346.23126 398.70312 345.2469Q399.57812 344.2469 399.57812 342.2Q399.57812 340.27814 398.70312 339.29376Q397.82812 338.29376 396.53125 338.29376Q395.20312 338.29376 394.32812 339.29376Q393.46875 340.27814 393.46875 342.2625Z" fill-rule="nonzero"/></svg>