<svg version="1.1" viewBox="0.0 0.0 651.0 400.0" fill="none" stroke="none" stroke-linecap="square" stroke-miterlimit="10" width="651" height="400" xmlns:xlink="http://www.w3.org/1999/xlink" xmlns="http://www.w3.org/2000/svg"><path fill="#434343" d="M0 0L651.0 0L651.0 400.0L0 400.0L0 0Z" fill-rule="nonzero"/><path fill="#4c1130" d="M154.11066 144.9937C178.01384 70.51585 247.28035 20.0 325.5 20.0L325.5 200.0Z" fill-rule="nonzero"/><path fill="#006d2c" d="M325.5 20.0C403.42102 20.0 472.49442 70.137276 496.64005 144.22287C520.78564 218.30846 494.5202 299.5181 431.56335 345.43234C368.60648 391.3466 283.2552 391.53867 220.0923 345.90823C156.92941 300.27783 130.29874 219.18721 154.11066 144.9937L325.5 200.0Z" fill-rule="nonzero"/><path fill="#ffffff" d="M28.09375 54.05802Q27.109375 54.886147 26.203125 55.229897Q25.296875 55.573647 24.265625 55.573647Q22.5625 55.573647 21.640625 54.74552Q20.71875 53.90177 20.71875 52.604897Q20.71875 51.83927 21.0625 51.21427Q21.421875 50.58927 21.984375 50.21427Q22.546875 49.823647 23.25 49.62052Q23.765625 49.49552 24.8125 49.354897Q26.9375 49.104897 27.9375 48.761147Q27.953125 48.40177 27.953125 48.292397Q27.953125 47.229897 27.453125 46.77677Q26.78125 46.18302 25.453125 46.18302Q24.203125 46.18302 23.609375 46.62052Q23.03125 47.05802 22.75 48.167397L21.03125 47.93302Q21.265625 46.823647 21.796875 46.15177Q22.328125 45.46427 23.34375 45.104897Q24.359375 44.729897 25.703125 44.729897Q27.03125 44.729897 27.859375 45.042397Q28.6875 45.354897 29.078125 45.83927Q29.46875 46.30802 29.625 47.02677Q29.71875 47.479897 29.71875 48.65177L29.71875 50.99552Q29.71875 53.448647 29.828125 54.104897Q29.9375 54.74552 30.28125 55.33927L28.4375 55.33927Q28.171875 54.792397 28.09375 54.05802ZM27.9375 50.136147Q26.984375 50.52677 25.0625 50.792397Q23.984375 50.948647 23.53125 51.15177Q23.09375 51.33927 22.84375 51.71427Q22.59375 52.08927 22.59375 52.55802Q22.59375 53.261147 23.125 53.729897Q23.65625 54.198647 24.6875 54.198647Q25.703125 54.198647 26.484375 53.761147Q27.28125 53.30802 27.65625 52.542397Q27.9375 51.93302 27.9375 50.77677L27.9375 50.136147ZM39.109375 55.33927L39.109375 53.80802Q37.90625 55.573647 35.828125 55.573647Q34.90625 55.573647 34.109375 55.229897Q33.3125 54.87052 32.921875 54.33927Q32.546875 53.80802 32.390625 53.02677Q32.28125 52.511147 32.28125 51.386147L32.28125 44.96427L34.03125 44.96427L34.03125 50.71427Q34.03125 52.08927 34.140625 52.573647Q34.3125 53.261147 34.84375 53.667397Q35.390625 54.05802 36.171875 54.05802Q36.96875 54.05802 37.65625 53.65177Q38.359375 53.24552 38.640625 52.55802Q38.9375 51.854897 38.9375 50.52677L38.9375 44.96427L40.6875 44.96427L40.6875 55.33927L39.109375 55.33927ZM46.15625 53.761147L46.40625 55.323647Q45.671875 55.479897 45.078125 55.479897Q44.125 55.479897 43.59375 55.18302Q43.078125 54.87052 42.859375 54.386147Q42.640625 53.886147 42.640625 52.30802L42.640625 46.33927L41.359375 46.33927L41.359375 44.96427L42.640625 44.96427L42.640625 42.40177L44.390625 41.33927L44.390625 44.96427L46.15625 44.96427L46.15625 46.33927L44.390625 46.33927L44.390625 52.40177Q44.390625 53.15177 44.484375 53.37052Q44.578125 53.573647 44.78125 53.71427Q45.0 53.83927 45.390625 53.83927Q45.671875 53.83927 46.15625 53.761147ZM47.671875 50.15177Q47.671875 47.27677 49.265625 45.886147Q50.609375 44.729897 52.53125 44.729897Q54.671875 44.729897 56.015625 46.136147Q57.375 47.542397 57.375 50.011147Q57.375 52.011147 56.78125 53.167397Q56.1875 54.30802 55.03125 54.948647Q53.890625 55.573647 52.53125 55.573647Q50.34375 55.573647 49.0 54.18302Q47.671875 52.77677 47.671875 50.15177ZM49.46875 50.15177Q49.46875 52.15177 50.328125 53.136147Q51.203125 54.12052 52.53125 54.12052Q53.84375 54.12052 54.703125 53.136147Q55.578125 52.136147 55.578125 50.08927Q55.578125 48.167397 54.703125 47.18302Q53.828125 46.18302 52.53125 46.18302Q51.203125 46.18302 50.328125 47.18302Q49.46875 48.167397 49.46875 50.15177ZM59.3125 55.33927L59.3125 44.96427L60.890625 44.96427L60.890625 46.417397Q61.375 45.667397 62.1875 45.198647Q63.0 44.729897 64.03125 44.729897Q65.1875 44.729897 65.921875 45.21427Q66.65625 45.68302 66.96875 46.542397Q68.203125 44.729897 70.171875 44.729897Q71.71875 44.729897 72.546875 45.58927Q73.375 46.448647 73.375 48.21427L73.375 55.33927L71.625 55.33927L71.625 48.80802Q71.625 47.74552 71.453125 47.292397Q71.28125 46.823647 70.828125 46.542397Q70.390625 46.261147 69.78125 46.261147Q68.6875 46.261147 67.953125 46.99552Q67.234375 47.71427 67.234375 49.30802L67.234375 55.33927L65.484375 55.33927L65.484375 48.604897Q65.484375 47.43302 65.046875 46.854897Q64.625 46.261147 63.640625 46.261147Q62.90625 46.261147 62.265625 46.65177Q61.640625 47.042397 61.359375 47.792397Q61.078125 48.542397 61.078125 49.96427L61.078125 55.33927L59.3125 55.33927ZM82.09375 54.05802Q81.109375 54.886147 80.203125 55.229897Q79.296875 55.573647 78.265625 55.573647Q76.5625 55.573647 75.640625 54.74552Q74.71875 53.90177 74.71875 52.604897Q74.71875 51.83927 75.0625 51.21427Q75.421875 50.58927 75.984375 50.21427Q76.546875 49.823647 77.25 49.62052Q77.765625 49.49552 78.8125 49.354897Q80.9375 49.104897 81.9375 48.761147Q81.953125 48.40177 81.953125 48.292397Q81.953125 47.229897 81.453125 46.77677Q80.78125 46.18302 79.453125 46.18302Q78.203125 46.18302 77.609375 46.62052Q77.03125 47.05802 76.75 48.167397L75.03125 47.93302Q75.265625 46.823647 75.796875 46.15177Q76.328125 45.46427 77.34375 45.104897Q78.359375 44.729897 79.703125 44.729897Q81.03125 44.729897 81.859375 45.042397Q82.6875 45.354897 83.078125 45.83927Q83.46875 46.30802 83.625 47.02677Q83.71875 47.479897 83.71875 48.65177L83.71875 50.99552Q83.71875 53.448647 83.828125 54.104897Q83.9375 54.74552 84.28125 55.33927L82.4375 55.33927Q82.171875 54.792397 82.09375 54.05802ZM81.9375 50.136147Q80.984375 50.52677 79.0625 50.792397Q77.984375 50.948647 77.53125 51.15177Q77.09375 51.33927 76.84375 51.71427Q76.59375 52.08927 76.59375 52.55802Q76.59375 53.261147 77.125 53.729897Q77.65625 54.198647 78.6875 54.198647Q79.703125 54.198647 80.484375 53.761147Q81.28125 53.30802 81.65625 52.542397Q81.9375 51.93302 81.9375 50.77677L81.9375 50.136147ZM78.53125 43.68302L79.828125 40.948647L82.125 40.948647L79.984375 43.68302L78.53125 43.68302ZM90.15625 53.761147L90.40625 55.323647Q89.671875 55.479897 89.078125 55.479897Q88.125 55.479897 87.59375 55.18302Q87.078125 54.87052 86.859375 54.386147Q86.640625 53.886147 86.640625 52.30802L86.640625 46.33927L85.359375 46.33927L85.359375 44.96427L86.640625 44.96427L86.640625 42.40177L88.390625 41.33927L88.390625 44.96427L90.15625 44.96427L90.15625 46.33927L88.390625 46.33927L88.390625 52.40177Q88.390625 53.15177 88.484375 53.37052Q88.578125 53.573647 88.78125 53.71427Q89.0 53.83927 89.390625 53.83927Q89.671875 53.83927 90.15625 53.761147ZM92.328125 43.042397L92.328125 41.02677L94.09375 41.02677L94.09375 43.042397L92.328125 43.042397ZM92.328125 55.33927L92.328125 44.96427L94.09375 44.96427L94.09375 55.33927L92.328125 55.33927ZM103.09375 51.542397L104.8125 51.761147Q104.53125 53.55802 103.359375 54.573647Q102.203125 55.573647 100.5 55.573647Q98.375 55.573647 97.078125 54.18302Q95.78125 52.792397 95.78125 50.198647Q95.78125 48.511147 96.328125 47.261147Q96.890625 45.99552 98.03125 45.37052Q99.171875 44.729897 100.515625 44.729897Q102.203125 44.729897 103.265625 45.58927Q104.34375 46.448647 104.65625 48.011147L102.9375 48.27677Q102.703125 47.229897 102.078125 46.71427Q101.453125 46.18302 100.578125 46.18302Q99.25 46.18302 98.421875 47.136147Q97.59375 48.08927 97.59375 50.136147Q97.59375 52.229897 98.390625 53.18302Q99.1875 54.12052 100.484375 54.12052Q101.515625 54.12052 102.203125 53.49552Q102.90625 52.854897 103.09375 51.542397ZM105.671875 50.15177Q105.671875 47.27677 107.265625 45.886147Q108.609375 44.729897 110.53125 44.729897Q112.671875 44.729897 114.015625 46.136147Q115.375 47.542397 115.375 50.011147Q115.375 52.011147 114.78125 53.167397Q114.1875 54.30802 113.03125 54.948647Q111.890625 55.573647 110.53125 55.573647Q108.34375 55.573647 107.0 54.18302Q105.671875 52.77677 105.671875 50.15177ZM107.46875 50.15177Q107.46875 52.15177 108.328125 53.136147Q109.203125 54.12052 110.53125 54.12052Q111.84375 54.12052 112.703125 53.136147Q113.578125 52.136147 113.578125 50.08927Q113.578125 48.167397 112.703125 47.18302Q111.828125 46.18302 110.53125 46.18302Q109.203125 46.18302 108.328125 47.18302Q107.46875 48.167397 107.46875 50.15177Z" fill-rule="nonzero"/><path fill="#a4a4a4" d="M30.0625 80.65177L30.0625 82.33927L20.609375 82.33927Q20.59375 81.69865 20.8125 81.12052Q21.171875 80.15177 21.96875 79.21427Q22.765625 78.27677 24.265625 77.0424Q26.609375 75.13615 27.421875 74.02677Q28.25 72.90177 28.25 71.90177Q28.25 70.8549 27.5 70.13615Q26.75 69.4174 25.546875 69.4174Q24.28125 69.4174 23.515625 70.18302Q22.75 70.94865 22.75 72.2924L20.9375 72.1049Q21.125 70.08927 22.328125 69.02677Q23.546875 67.96427 25.59375 67.96427Q27.640625 67.96427 28.84375 69.1049Q30.046875 70.24552 30.046875 71.93302Q30.046875 72.7924 29.6875 73.63615Q29.34375 74.46427 28.53125 75.38615Q27.71875 76.2924 25.828125 77.90177Q24.234375 79.2299 23.78125 79.69865Q23.34375 80.1674 23.046875 80.65177L30.0625 80.65177ZM31.828125 75.27677Q31.828125 72.74552 32.34375 71.19865Q32.875 69.63615 33.90625 68.80802Q34.9375 67.96427 36.5 67.96427Q37.65625 67.96427 38.515625 68.43302Q39.390625 68.88615 39.953125 69.76115Q40.515625 70.63615 40.84375 71.90177Q41.171875 73.15177 41.171875 75.27677Q41.171875 77.7924 40.640625 79.33927Q40.125 80.88615 39.09375 81.74552Q38.078125 82.58927 36.5 82.58927Q34.421875 82.58927 33.25 81.1049Q31.828125 79.30802 31.828125 75.27677ZM33.640625 75.27677Q33.640625 78.80802 34.453125 79.9799Q35.28125 81.13615 36.5 81.13615Q37.703125 81.13615 38.53125 79.96427Q39.359375 78.7924 39.359375 75.27677Q39.359375 71.74552 38.53125 70.58927Q37.703125 69.4174 36.484375 69.4174Q35.265625 69.4174 34.546875 70.44865Q33.640625 71.74552 33.640625 75.27677ZM43.8125 82.33927L43.8125 80.33927L45.8125 80.33927L45.8125 82.33927L43.8125 82.33927ZM55.453125 82.33927L53.6875 82.33927L53.6875 71.13615Q53.0625 71.74552 52.03125 72.3549Q51.0 72.94865 50.171875 73.26115L50.171875 71.55802Q51.65625 70.87052 52.75 69.88615Q53.859375 68.88615 54.3125 67.96427L55.453125 67.96427L55.453125 82.33927ZM60.15625 71.46427Q60.15625 69.93302 60.921875 68.8549Q61.703125 67.77677 63.171875 67.77677Q64.515625 67.77677 65.390625 68.74552Q66.28125 69.69865 66.28125 71.57365Q66.28125 73.38615 65.390625 74.37052Q64.5 75.33927 63.1875 75.33927Q61.890625 75.33927 61.015625 74.38615Q60.15625 73.4174 60.15625 71.46427ZM63.21875 68.99552Q62.5625 68.99552 62.125 69.55802Q61.703125 70.12052 61.703125 71.63615Q61.703125 73.01115 62.140625 73.57365Q62.578125 74.13615 63.21875 74.13615Q63.890625 74.13615 64.3125 73.57365Q64.75 72.99552 64.75 71.49552Q64.75 70.1049 64.3125 69.55802Q63.875 68.99552 63.21875 68.99552ZM63.234375 82.87052L71.0625 67.77677L72.484375 67.77677L64.6875 82.87052L63.234375 82.87052ZM69.421875 78.9799Q69.421875 77.43302 70.1875 76.37052Q70.96875 75.2924 72.4375 75.2924Q73.78125 75.2924 74.65625 76.26115Q75.546875 77.21427 75.546875 79.08927Q75.546875 80.90177 74.65625 81.88615Q73.765625 82.87052 72.453125 82.87052Q71.15625 82.87052 70.28125 81.90177Q69.421875 80.9174 69.421875 78.9799ZM72.484375 76.51115Q71.828125 76.51115 71.390625 77.07365Q70.953125 77.63615 70.953125 79.15177Q70.953125 80.52677 71.390625 81.08927Q71.828125 81.65177 72.484375 81.65177Q73.15625 81.65177 73.578125 81.08927Q74.015625 80.52677 74.015625 79.01115Q74.015625 77.63615 73.578125 77.07365Q73.140625 76.51115 72.484375 76.51115Z" fill-rule="nonzero"/><path stroke="#cdcdcd" stroke-width="1.0" stroke-linecap="butt" d="M20.0 61.83927L139.5 61.83927L224.73982 61.83927" fill-rule="nonzero"/><path fill="#a4a4a4" d="M226.73982 61.83927C226.73982 60.734703 225.84439 59.83927 224.73982 59.83927C223.63525 59.83927 222.73982 60.734703 222.73982 61.83927C222.73982 62.943844 223.63525 63.83927 224.73982 63.83927C225.84439 63.83927 226.73982 62.943844 226.73982 61.83927" fill-rule="nonzero"/><path fill="#ffffff" d="M530.09375 327.86386L531.8125 328.0826Q531.53125 329.8795 530.3594 330.8951Q529.2031 331.8951 527.5 331.8951Q525.375 331.8951 524.0781 330.5045Q522.78125 329.11386 522.78125 326.5201Q522.78125 324.8326 523.3281 323.5826Q523.8906 322.317 525.03125 321.692Q526.1719 321.05136 527.5156 321.05136Q529.2031 321.05136 530.2656 321.91074Q531.34375 322.7701 531.65625 324.3326L529.9375 324.59824Q529.7031 323.55136 529.0781 323.03574Q528.4531 322.5045 527.5781 322.5045Q526.25 322.5045 525.4219 323.4576Q524.59375 324.41074 524.59375 326.4576Q524.59375 328.55136 525.3906 329.5045Q526.1875 330.442 527.4844 330.442Q528.5156 330.442 529.2031 329.817Q529.90625 329.17636 530.09375 327.86386ZM540.1094 331.66074L540.1094 330.1295Q538.90625 331.8951 536.8281 331.8951Q535.90625 331.8951 535.1094 331.55136Q534.3125 331.192 533.9219 330.66074Q533.5469 330.1295 533.3906 329.34824Q533.28125 328.8326 533.28125 327.7076L533.28125 321.28574L535.03125 321.28574L535.03125 327.03574Q535.03125 328.41074 535.1406 328.8951Q535.3125 329.5826 535.84375 329.98886Q536.3906 330.3795 537.1719 330.3795Q537.96875 330.3795 538.65625 329.97324Q539.3594 329.567 539.6406 328.8795Q539.9375 328.17636 539.9375 326.84824L539.9375 321.28574L541.6875 321.28574L541.6875 331.66074L540.1094 331.66074ZM542.6094 328.567L544.3594 328.28574Q544.5 329.3326 545.1719 329.8951Q545.84375 330.442 547.0469 330.442Q548.25 330.442 548.8281 329.9576Q549.4219 329.4576 549.4219 328.80136Q549.4219 328.2076 548.90625 327.86386Q548.5469 327.6295 547.1094 327.2701Q545.1719 326.7701 544.4219 326.42636Q543.6875 326.067 543.2969 325.442Q542.90625 324.80136 542.90625 324.03574Q542.90625 323.34824 543.21875 322.7545Q543.5469 322.16074 544.09375 321.7701Q544.5 321.47324 545.2031 321.2701Q545.9219 321.05136 546.7344 321.05136Q547.9531 321.05136 548.875 321.41074Q549.7969 321.7545 550.2344 322.36386Q550.6719 322.9576 550.84375 323.9576L549.125 324.192Q549.0 323.3951 548.4375 322.9576Q547.875 322.5045 546.8594 322.5045Q545.6406 322.5045 545.125 322.91074Q544.6094 323.30136 544.6094 323.8326Q544.6094 324.17636 544.8281 324.4576Q545.03125 324.73886 545.5 324.92636Q545.7656 325.0201 547.0469 325.36386Q548.9219 325.86386 549.65625 326.192Q550.3906 326.5045 550.8125 327.11386Q551.2344 327.7076 551.2344 328.61386Q551.2344 329.48886 550.71875 330.2701Q550.2031 331.05136 549.2344 331.47324Q548.2656 331.8951 547.0469 331.8951Q545.03125 331.8951 543.96875 331.05136Q542.90625 330.2076 542.6094 328.567ZM557.15625 330.0826L557.40625 331.6451Q556.6719 331.80136 556.0781 331.80136Q555.125 331.80136 554.59375 331.5045Q554.0781 331.192 553.8594 330.7076Q553.6406 330.2076 553.6406 328.6295L553.6406 322.66074L552.3594 322.66074L552.3594 321.28574L553.6406 321.28574L553.6406 318.72324L555.3906 317.66074L555.3906 321.28574L557.15625 321.28574L557.15625 322.66074L555.3906 322.66074L555.3906 328.72324Q555.3906 329.47324 555.4844 329.692Q555.5781 329.8951 555.78125 330.03574Q556.0 330.16074 556.3906 330.16074Q556.6719 330.16074 557.15625 330.0826ZM558.6719 326.47324Q558.6719 323.59824 560.2656 322.2076Q561.6094 321.05136 563.53125 321.05136Q565.6719 321.05136 567.0156 322.4576Q568.375 323.86386 568.375 326.3326Q568.375 328.3326 567.78125 329.48886Q567.1875 330.6295 566.03125 331.2701Q564.8906 331.8951 563.53125 331.8951Q561.34375 331.8951 560.0 330.5045Q558.6719 329.09824 558.6719 326.47324ZM560.46875 326.47324Q560.46875 328.47324 561.3281 329.4576Q562.2031 330.442 563.53125 330.442Q564.84375 330.442 565.7031 329.4576Q566.5781 328.4576 566.5781 326.41074Q566.5781 324.48886 565.7031 323.5045Q564.8281 322.5045 563.53125 322.5045Q562.2031 322.5045 561.3281 323.5045Q560.46875 324.48886 560.46875 326.47324ZM570.3125 331.66074L570.3125 321.28574L571.8906 321.28574L571.8906 322.73886Q572.375 321.98886 573.1875 321.5201Q574.0 321.05136 575.03125 321.05136Q576.1875 321.05136 576.9219 321.53574Q577.65625 322.0045 577.96875 322.86386Q579.2031 321.05136 581.1719 321.05136Q582.71875 321.05136 583.5469 321.91074Q584.375 322.7701 584.375 324.53574L584.375 331.66074L582.625 331.66074L582.625 325.1295Q582.625 324.067 582.4531 323.61386Q582.28125 323.1451 581.8281 322.86386Q581.3906 322.5826 580.78125 322.5826Q579.6875 322.5826 578.9531 323.317Q578.2344 324.03574 578.2344 325.6295L578.2344 331.66074L576.4844 331.66074L576.4844 324.92636Q576.4844 323.7545 576.0469 323.17636Q575.625 322.5826 574.6406 322.5826Q573.90625 322.5826 573.2656 322.97324Q572.6406 323.36386 572.3594 324.11386Q572.0781 324.86386 572.0781 326.28574L572.0781 331.66074L570.3125 331.66074ZM586.3281 319.36386L586.3281 317.34824L588.09375 317.34824L588.09375 319.36386L586.3281 319.36386ZM586.3281 331.66074L586.3281 321.28574L588.09375 321.28574L588.09375 331.66074L586.3281 331.66074ZM589.3906 331.66074L589.3906 330.23886L596.0 322.66074Q594.875 322.7076 594.0156 322.7076L589.78125 322.7076L589.78125 321.28574L598.2656 321.28574L598.2656 322.4576L592.6406 329.03574L591.5625 330.23886Q592.7344 330.1451 593.78125 330.1451L598.5781 330.1451L598.5781 331.66074L589.3906 331.66074ZM606.09375 330.3795Q605.1094 331.2076 604.2031 331.55136Q603.2969 331.8951 602.2656 331.8951Q600.5625 331.8951 599.6406 331.067Q598.71875 330.22324 598.71875 328.92636Q598.71875 328.16074 599.0625 327.53574Q599.4219 326.91074 599.9844 326.53574Q600.5469 326.1451 601.25 325.942Q601.7656 325.817 602.8125 325.67636Q604.9375 325.42636 605.9375 325.0826Q605.9531 324.72324 605.9531 324.61386Q605.9531 323.55136 605.4531 323.09824Q604.78125 322.5045 603.4531 322.5045Q602.2031 322.5045 601.6094 322.942Q601.03125 323.3795 600.75 324.48886L599.03125 324.2545Q599.2656 323.1451 599.7969 322.47324Q600.3281 321.78574 601.34375 321.42636Q602.3594 321.05136 603.7031 321.05136Q605.03125 321.05136 605.8594 321.36386Q606.6875 321.67636 607.0781 322.16074Q607.46875 322.6295 607.625 323.34824Q607.71875 323.80136 607.71875 324.97324L607.71875 327.317Q607.71875 329.7701 607.8281 330.42636Q607.9375 331.067 608.28125 331.66074L606.4375 331.66074Q606.1719 331.11386 606.09375 330.3795ZM605.9375 326.4576Q604.9844 326.84824 603.0625 327.11386Q601.9844 327.2701 601.53125 327.47324Q601.09375 327.66074 600.84375 328.03574Q600.59375 328.41074 600.59375 328.8795Q600.59375 329.5826 601.125 330.05136Q601.65625 330.5201 602.6875 330.5201Q603.7031 330.5201 604.4844 330.0826Q605.28125 329.6295 605.65625 328.86386Q605.9375 328.2545 605.9375 327.09824L605.9375 326.4576ZM617.0469 331.66074L617.0469 330.34824Q616.0625 331.8951 614.1406 331.8951Q612.90625 331.8951 611.8594 331.2076Q610.8281 330.5201 610.25 329.30136Q609.6875 328.0826 609.6875 326.48886Q609.6875 324.92636 610.2031 323.66074Q610.71875 322.3951 611.75 321.72324Q612.7969 321.05136 614.0625 321.05136Q615.0 321.05136 615.7344 321.4576Q616.46875 321.84824 616.9375 322.47324L616.9375 317.34824L618.6719 317.34824L618.6719 331.66074L617.0469 331.66074ZM611.4844 326.48886Q611.4844 328.47324 612.3281 329.4576Q613.1719 330.442 614.3125 330.442Q615.46875 330.442 616.2656 329.5045Q617.0781 328.567 617.0781 326.6295Q617.0781 324.5045 616.25 323.5045Q615.4375 322.5045 614.2344 322.5045Q613.0625 322.5045 612.2656 323.47324Q611.4844 324.42636 611.4844 326.48886ZM620.6719 326.47324Q620.6719 323.59824 622.2656 322.2076Q623.6094 321.05136 625.53125 321.05136Q627.6719 321.05136 629.0156 322.4576Q630.375 323.86386 630.375 326.3326Q630.375 328.3326 629.78125 329.48886Q629.1875 330.6295 628.03125 331.2701Q626.8906 331.8951 625.53125 331.8951Q623.34375 331.8951 622.0 330.5045Q620.6719 329.09824 620.6719 326.47324ZM622.46875 326.47324Q622.46875 328.47324 623.3281 329.4576Q624.2031 330.442 625.53125 330.442Q626.84375 330.442 627.7031 329.4576Q628.5781 328.4576 628.5781 326.41074Q628.5781 324.48886 627.7031 323.5045Q626.8281 322.5045 625.53125 322.5045Q624.2031 322.5045 623.3281 323.5045Q622.46875 324.48886 622.46875 326.47324Z" fill-rule="nonzero"/><path fill="#a4a4a4" d="M574.9531 346.22324L574.9531 344.53574L584.21875 344.53574L584.21875 345.8951Q582.84375 347.34824 581.5 349.7701Q580.15625 352.17636 579.4375 354.72324Q578.90625 356.5201 578.75 358.66074L576.9531 358.66074Q576.9844 356.97324 577.6094 354.5826Q578.25 352.192 579.4375 349.97324Q580.625 347.73886 581.9531 346.22324L574.9531 346.22324ZM586.09375 355.34824L587.78125 355.192Q588.0 356.3795 588.59375 356.92636Q589.2031 357.4576 590.15625 357.4576Q590.96875 357.4576 591.5781 357.09824Q592.1875 356.72324 592.5781 356.09824Q592.96875 355.47324 593.2344 354.42636Q593.5 353.36386 593.5 352.2701Q593.5 352.16074 593.4844 351.92636Q592.9531 352.7545 592.0469 353.28574Q591.1406 353.80136 590.0625 353.80136Q588.2969 353.80136 587.0625 352.5201Q585.8281 351.22324 585.8281 349.11386Q585.8281 346.942 587.1094 345.61386Q588.40625 344.28574 590.3281 344.28574Q591.7344 344.28574 592.8906 345.03574Q594.0469 345.78574 594.6406 347.17636Q595.25 348.567 595.25 351.2076Q595.25 353.9576 594.6406 355.5826Q594.0469 357.2076 592.875 358.067Q591.7031 358.91074 590.125 358.91074Q588.4375 358.91074 587.375 357.97324Q586.3125 357.03574 586.09375 355.34824ZM593.2969 349.03574Q593.2969 347.5201 592.4844 346.6295Q591.6875 345.73886 590.5469 345.73886Q589.375 345.73886 588.5 346.7076Q587.6406 347.66074 587.6406 349.17636Q587.6406 350.55136 588.4531 351.41074Q589.28125 352.2545 590.5 352.2545Q591.71875 352.2545 592.5 351.41074Q593.2969 350.55136 593.2969 349.03574ZM597.8125 358.66074L597.8125 356.66074L599.8125 356.66074L599.8125 358.66074L597.8125 358.66074ZM603.09375 355.34824L604.78125 355.192Q605.0 356.3795 605.59375 356.92636Q606.2031 357.4576 607.15625 357.4576Q607.96875 357.4576 608.5781 357.09824Q609.1875 356.72324 609.5781 356.09824Q609.96875 355.47324 610.2344 354.42636Q610.5 353.36386 610.5 352.2701Q610.5 352.16074 610.4844 351.92636Q609.9531 352.7545 609.0469 353.28574Q608.1406 353.80136 607.0625 353.80136Q605.2969 353.80136 604.0625 352.5201Q602.8281 351.22324 602.8281 349.11386Q602.8281 346.942 604.1094 345.61386Q605.40625 344.28574 607.3281 344.28574Q608.7344 344.28574 609.8906 345.03574Q611.0469 345.78574 611.6406 347.17636Q612.25 348.567 612.25 351.2076Q612.25 353.9576 611.6406 355.5826Q611.0469 357.2076 609.875 358.067Q608.7031 358.91074 607.125 358.91074Q605.4375 358.91074 604.375 357.97324Q603.3125 357.03574 603.09375 355.34824ZM610.2969 349.03574Q610.2969 347.5201 609.4844 346.6295Q608.6875 345.73886 607.5469 345.73886Q606.375 345.73886 605.5 346.7076Q604.6406 347.66074 604.6406 349.17636Q604.6406 350.55136 605.4531 351.41074Q606.28125 352.2545 607.5 352.2545Q608.71875 352.2545 609.5 351.41074Q610.2969 350.55136 610.2969 349.03574ZM614.15625 347.78574Q614.15625 346.2545 614.9219 345.17636Q615.7031 344.09824 617.1719 344.09824Q618.5156 344.09824 619.3906 345.067Q620.28125 346.0201 620.28125 347.8951Q620.28125 349.7076 619.3906 350.692Q618.5 351.66074 617.1875 351.66074Q615.8906 351.66074 615.0156 350.7076Q614.15625 349.73886 614.15625 347.78574ZM617.21875 345.317Q616.5625 345.317 616.125 345.8795Q615.7031 346.442 615.7031 347.9576Q615.7031 349.3326 616.1406 349.8951Q616.5781 350.4576 617.21875 350.4576Q617.8906 350.4576 618.3125 349.8951Q618.75 349.317 618.75 347.817Q618.75 346.42636 618.3125 345.8795Q617.875 345.317 617.21875 345.317ZM617.2344 359.192L625.0625 344.09824L626.4844 344.09824L618.6875 359.192L617.2344 359.192ZM623.4219 355.30136Q623.4219 353.7545 624.1875 352.692Q624.96875 351.61386 626.4375 351.61386Q627.78125 351.61386 628.65625 352.5826Q629.5469 353.53574 629.5469 355.41074Q629.5469 357.22324 628.65625 358.2076Q627.7656 359.192 626.4531 359.192Q625.15625 359.192 624.28125 358.22324Q623.4219 357.23886 623.4219 355.30136ZM626.4844 352.8326Q625.8281 352.8326 625.3906 353.3951Q624.9531 353.9576 624.9531 355.47324Q624.9531 356.84824 625.3906 357.41074Q625.8281 357.97324 626.4844 357.97324Q627.15625 357.97324 627.5781 357.41074Q628.0156 356.84824 628.0156 355.3326Q628.0156 353.9576 627.5781 353.3951Q627.1406 352.8326 626.4844 352.8326Z" fill-rule="nonzero"/><path stroke="#cdcdcd" stroke-width="1.0" stroke-linecap="butt" d="M631.0 338.16074L511.5 338.16074L426.26016 338.16074" fill-rule="nonzero"/><path fill="#a4a4a4" d="M428.26016 338.16074C428.26016 337.05615 427.36475 336.16074 426.26016 336.16074C425.1556 336.16074 424.26016 337.05615 424.26016 338.16074C424.26016 339.2653 425.1556 340.16074 426.26016 340.16074C427.36475 340.16074 428.26016 339.2653 428.26016 338.16074" fill-rule="nonzero"/></svg>