<svg xmlns="http://www.w3.org/2000/svg" width="340" height="300"><rect width="100%" height="100%" fill="#383838" /><rect x="0" y="0" width="18" height="18" fill="#434343" stroke="white" stroke-width="0"/><rect x="20" y="0" width="18" height="18" fill="#434343" stroke="white" stroke-width="0"/><rect x="40" y="0" width="18" height="18" fill="#e5f5e0" stroke="white" stroke-width="0"/><rect x="60" y="0" width="18" height="18" fill="#434343" stroke="white" stroke-width="0"/><rect x="80" y="0" width="18" height="18" fill="#434343" stroke="white" stroke-width="0"/><rect x="100" y="0" width="18" height="18" fill="#434343" stroke="white" stroke-width="0"/><rect x="120" y="0" width="18" height="18" fill="#434343" stroke="white" stroke-width="0"/><rect x="140" y="0" width="18" height="18" fill="#e5f5e0" stroke="white" stroke-width="0"/><rect x="160" y="0" width="18" height="18" fill="#434343" stroke="white" stroke-width="0"/><rect x="180" y="0" width="18" height="18" fill="#e5f5e0" stroke="white" stroke-width="0"/><rect x="200" y="0" width="18" height="18" fill="#434343" stroke="white" stroke-width="0"/><rect x="220" y="0" width="18" height="18" fill="#a4d9b1" stroke="white" stroke-width="0"/><rect x="240" y="0" width="18" height="18" fill="#434343" stroke="white" stroke-width="0"/><rect x="260" y="0" width="18" height="18" fill="#9ad0a8" stroke="white" stroke-width="0"/><rect x="280" y="0" width="18" height="18" fill="#bde5c4" stroke="white" stroke-width="0"/><rect x="300" y="0" width="18" height="18" fill="#a4d9b1" stroke="white" stroke-width="0"/><rect x="320" y="0" width="18" height="18" fill="#434343" stroke="white" stroke-width="0"/><rect x="0" y="20" width="18" height="18" fill="#434343" stroke="white" stroke-width="0"/><rect x="20" y="20" width="18" height="18" fill="#434343" stroke="white" stroke-width="0"/><rect x="40" y="20" width="18" height="18" fill="#434343" stroke="white" stroke-width="0"/><rect x="60" y="20" width="18" height="18" fill="#434343" stroke="white" stroke-width="0"/><rect x="80" y="20" width="18" height="18" fill="#434343" stroke="white" stroke-width="0"/><rect x="100" y="20" width="18" height="18" fill="#434343" stroke="white" stroke-width="0"/><rect x="120" y="20" width="18" height="18" fill="#434343" stroke="white" stroke-width="0"/><rect x="140" y="20" width="18" height="18" fill="#434343" stroke="white" stroke-width="0"/><rect x="160" y="20" width="18" height="18" fill="#434343" stroke="white" stroke-width="0"/><rect x="180" y="20" width="18" height="18" fill="#e5f5e0" stroke="white" stroke-width="0"/><rect x="200" y="20" width="18" height="18" fill="#434343" stroke="white" stroke-width="0"/><rect x="220" y="20" width="18" height="18" fill="#434343" stroke="white" stroke-width="0"/><rect x="240" y="20" width="18" height="18" fill="#434343" stroke="white" stroke-width="0"/><rect x="260" y="20" width="18" height="18" fill="#434343" stroke="white" stroke-width="0"/><rect x="280" y="20" width="18" height="18" fill="#434343" stroke="white" stroke-width="0"/><rect x="300" y="20" width="18" height="18" fill="#434343" stroke="white" stroke-width="0"/><rect x="320" y="20" width="18" height="18" fill="#bde5c4" stroke="white" stroke-width="0"/><rect x="0" y="40" width="18" height="18" fill="#434343" stroke="white" stroke-width="0"/><rect x="20" y="40" width="18" height="18" fill="#434343" stroke="white" stroke-width="0"/><rect x="40" y="40" width="18" height="18" fill="#434343" stroke="white" stroke-width="0"/><rect x="60" y="40" width="18" height="18" fill="#a4d9b1" stroke="white" stroke-width="0"/><rect x="80" y="40" width="18" height="18" fill="#434343" stroke="white" stroke-width="0"/><rect x="100" y="40" width="18" height="18" fill="#434343" stroke="white" stroke-width="0"/><rect x="120" y="40" width="18" height="18" fill="#434343" stroke="white" stroke-width="0"/><rect x="140" y="40" width="18" height="18" fill="#e5f5e0" stroke="white" stroke-width="0"/><rect x="160" y="40" width="18" height="18" fill="#bde5c4" stroke="white" stroke-width="0"/><rect x="180" y="40" width="18" height="18" fill="#e5f5e0" stroke="white" stroke-width="0"/><rect x="200" y="40" width="18" height="18" fill="#434343" stroke="white" stroke-width="0"/><rect x="220" y="40" width="18" height="18" fill="#bde5c4" stroke="white" stroke-width="0"/><rect x="240" y="40" width="18" height="18" fill="#434343" stroke="white" stroke-width="0"/><rect x="260" y="40" width="18" height="18" fill="#e5f5e0" stroke="white" stroke-width="0"/><rect x="280" y="40" width="18" height="18" fill="#6aa57c" stroke="white" stroke-width="0"/><rect x="300" y="40" width="18" height="18" fill="#87bf97" stroke="white" stroke-width="0"/><rect x="320" y="40" width="18" height="18" fill="#307047" stroke="white" stroke-width="0"/><rect x="0" y="60" width="18" height="18" fill="#434343" stroke="white" stroke-width="0"/><rect x="20" y="60" width="18" height="18" fill="#434343" stroke="white" stroke-width="0"/><rect x="40" y="60" width="18" height="18" fill="#434343" stroke="white" stroke-width="0"/><rect x="60" y="60" width="18" height="18" fill="#434343" stroke="white" stroke-width="0"/><rect x="80" y="60" width="18" height="18" fill="#434343" stroke="white" stroke-width="0"/><rect x="100" y="60" width="18" height="18" fill="#434343" stroke="white" stroke-width="0"/><rect x="120" y="60" width="18" height="18" fill="#e5f5e0" stroke="white" stroke-width="0"/><rect x="140" y="60" width="18" height="18" fill="#434343" stroke="white" stroke-width="0"/><rect x="160" y="60" width="18" height="18" fill="#434343" stroke="white" stroke-width="0"/><rect x="180" y="60" width="18" height="18" fill="#e5f5e0" stroke="white" stroke-width="0"/><rect x="200" y="60" width="18" height="18" fill="#434343" stroke="white" stroke-width="0"/><rect x="220" y="60" width="18" height="18" fill="#434343" stroke="white" stroke-width="0"/><rect x="240" y="60" width="18" height="18" fill="#6aa57c" stroke="white" stroke-width="0"/><rect x="260" y="60" width="18" height="18" fill="#434343" stroke="white" stroke-width="0"/><rect x="280" y="60" width="18" height="18" fill="#e5f5e0" stroke="white" stroke-width="0"/><rect x="300" y="60" width="18" height="18" fill="#a4d9b1" stroke="white" stroke-width="0"/><rect x="320" y="60" width="18" height="18" fill="#434343" stroke="white" stroke-width="0"/><rect x="0" y="80" width="18" height="18" fill="#434343" stroke="white" stroke-width="0"/><rect x="20" y="80" width="18" height="18" fill="#e5f5e0" stroke="white" stroke-width="0"/><rect x="40" y="80" width="18" height="18" fill="#434343" stroke="white" stroke-width="0"/><rect x="60" y="80" width="18" height="18" fill="#bde5c4" stroke="white" stroke-width="0"/><rect x="80" y="80" width="18" height="18" fill="#e5f5e0" stroke="white" stroke-width="0"/><rect x="100" y="80" width="18" height="18" fill="#434343" stroke="white" stroke-width="0"/><rect x="120" y="80" width="18" height="18" fill="#e5f5e0" stroke="white" stroke-width="0"/><rect x="140" y="80" width="18" height="18" fill="#434343" stroke="white" stroke-width="0"/><rect x="160" y="80" width="18" height="18" fill="#434343" stroke="white" stroke-width="0"/><rect x="180" y="80" width="18" height="18" fill="#e5f5e0" stroke="white" stroke-width="0"/><rect x="200" y="80" width="18" height="18" fill="#434343" stroke="white" stroke-width="0"/><rect x="220" y="80" width="18" height="18" fill="#a4d9b1" stroke="white" stroke-width="0"/><rect x="240" y="80" width="18" height="18" fill="#434343" stroke="white" stroke-width="0"/><rect x="260" y="80" width="18" height="18" fill="#a4d9b1" stroke="white" stroke-width="0"/><rect x="280" y="80" width="18" height="18" fill="#bde5c4" stroke="white" stroke-width="0"/><rect x="300" y="80" width="18" height="18" fill="#9ad0a8" stroke="white" stroke-width="0"/><rect x="320" y="80" width="18" height="18" fill="#434343" stroke="white" stroke-width="0"/><rect x="0" y="100" width="18" height="18" fill="#434343" stroke="white" stroke-width="0"/><rect x="20" y="100" width="18" height="18" fill="#434343" stroke="white" stroke-width="0"/><rect x="40" y="100" width="18" height="18" fill="#e5f5e0" stroke="white" stroke-width="0"/><rect x="60" y="100" width="18" height="18" fill="#434343" stroke="white" stroke-width="0"/><rect x="80" y="100" width="18" height="18" fill="#434343" stroke="white" stroke-width="0"/><rect x="100" y="100" width="18" height="18" fill="#434343" stroke="white" stroke-width="0"/><rect x="120" y="100" width="18" height="18" fill="#434343" stroke="white" stroke-width="0"/><rect x="140" y="100" width="18" height="18" fill="#434343" stroke="white" stroke-width="0"/><rect x="160" y="100" width="18" height="18" fill="#bde5c4" stroke="white" stroke-width="0"/><rect x="180" y="100" width="18" height="18" fill="#a4d9b1" stroke="white" stroke-width="0"/><rect x="200" y="100" width="18" height="18" fill="#434343" stroke="white" stroke-width="0"/><rect x="220" y="100" width="18" height="18" fill="#9ad0a8" stroke="white" stroke-width="0"/><rect x="240" y="100" width="18" height="18" fill="#e5f5e0" stroke="white" stroke-width="0"/><rect x="260" y="100" width="18" height="18" fill="#e5f5e0" stroke="white" stroke-width="0"/><rect x="280" y="100" width="18" height="18" fill="#434343" stroke="white" stroke-width="0"/><rect x="300" y="100" width="18" height="18" fill="#9ad0a8" stroke="white" stroke-width="0"/><rect x="320" y="100" width="18" height="18" fill="#434343" stroke="white" stroke-width="0"/><rect x="0" y="120" width="18" height="18" fill="#434343" stroke="white" stroke-width="0"/><rect x="20" y="120" width="18" height="18" fill="#434343" stroke="white" stroke-width="0"/><rect x="40" y="120" width="18" height="18" fill="#434343" stroke="white" stroke-width="0"/><rect x="60" y="120" width="18" height="18" fill="#e5f5e0" stroke="white" stroke-width="0"/><rect x="80" y="120" width="18" height="18" fill="#6aa57c" stroke="white" stroke-width="0"/><rect x="100" y="120" width="18" height="18" fill="#434343" stroke="white" stroke-width="0"/><rect x="120" y="120" width="18" height="18" fill="#434343" stroke="white" stroke-width="0"/><rect x="140" y="120" width="18" height="18" fill="#434343" stroke="white" stroke-width="0"/><rect x="160" y="120" width="18" height="18" fill="#434343" stroke="white" stroke-width="0"/><rect x="180" y="120" width="18" height="18" fill="#a4d9b1" stroke="white" stroke-width="0"/><rect x="200" y="120" width="18" height="18" fill="#434343" stroke="white" stroke-width="0"/><rect x="220" y="120" width="18" height="18" fill="#57936b" stroke="white" stroke-width="0"/><rect x="240" y="120" width="18" height="18" fill="#e5f5e0" stroke="white" stroke-width="0"/><rect x="260" y="120" width="18" height="18" fill="#bde5c4" stroke="white" stroke-width="0"/><rect x="280" y="120" width="18" height="18" fill="#91c8a0" stroke="white" stroke-width="0"/><rect x="300" y="120" width="18" height="18" fill="#91c8a0" stroke="white" stroke-width="0"/><rect x="320" y="120" width="18" height="18" fill="#00441b" stroke="white" stroke-width="0"/><rect x="0" y="140" width="18" height="18" fill="#434343" stroke="white" stroke-width="0"/><rect x="20" y="140" width="18" height="18" fill="#434343" stroke="white" stroke-width="0"/><rect x="40" y="140" width="18" height="18" fill="#91c8a0" stroke="white" stroke-width="0"/><rect x="60" y="140" width="18" height="18" fill="#434343" stroke="white" stroke-width="0"/><rect x="80" y="140" width="18" height="18" fill="#e5f5e0" stroke="white" stroke-width="0"/><rect x="100" y="140" width="18" height="18" fill="#434343" stroke="white" stroke-width="0"/><rect x="120" y="140" width="18" height="18" fill="#434343" stroke="white" stroke-width="0"/><rect x="140" y="140" width="18" height="18" fill="#bde5c4" stroke="white" stroke-width="0"/><rect x="160" y="140" width="18" height="18" fill="#434343" stroke="white" stroke-width="0"/><rect x="180" y="140" width="18" height="18" fill="#e5f5e0" stroke="white" stroke-width="0"/><rect x="200" y="140" width="18" height="18" fill="#bde5c4" stroke="white" stroke-width="0"/><rect x="220" y="140" width="18" height="18" fill="#a4d9b1" stroke="white" stroke-width="0"/><rect x="240" y="140" width="18" height="18" fill="#434343" stroke="white" stroke-width="0"/><rect x="260" y="140" width="18" height="18" fill="#434343" stroke="white" stroke-width="0"/><rect x="280" y="140" width="18" height="18" fill="#a4d9b1" stroke="white" stroke-width="0"/><rect x="300" y="140" width="18" height="18" fill="#609c73" stroke="white" stroke-width="0"/><rect x="320" y="140" width="18" height="18" fill="#434343" stroke="white" stroke-width="0"/><rect x="0" y="160" width="18" height="18" fill="#434343" stroke="white" stroke-width="0"/><rect x="20" y="160" width="18" height="18" fill="#434343" stroke="white" stroke-width="0"/><rect x="40" y="160" width="18" height="18" fill="#434343" stroke="white" stroke-width="0"/><rect x="60" y="160" width="18" height="18" fill="#bde5c4" stroke="white" stroke-width="0"/><rect x="80" y="160" width="18" height="18" fill="#a4d9b1" stroke="white" stroke-width="0"/><rect x="100" y="160" width="18" height="18" fill="#91c8a0" stroke="white" stroke-width="0"/><rect x="120" y="160" width="18" height="18" fill="#434343" stroke="white" stroke-width="0"/><rect x="140" y="160" width="18" height="18" fill="#434343" stroke="white" stroke-width="0"/><rect x="160" y="160" width="18" height="18" fill="#a4d9b1" stroke="white" stroke-width="0"/><rect x="180" y="160" width="18" height="18" fill="#434343" stroke="white" stroke-width="0"/><rect x="200" y="160" width="18" height="18" fill="#e5f5e0" stroke="white" stroke-width="0"/><rect x="220" y="160" width="18" height="18" fill="#9ad0a8" stroke="white" stroke-width="0"/><rect x="240" y="160" width="18" height="18" fill="#e5f5e0" stroke="white" stroke-width="0"/><rect x="260" y="160" width="18" height="18" fill="#434343" stroke="white" stroke-width="0"/><rect x="280" y="160" width="18" height="18" fill="#434343" stroke="white" stroke-width="0"/><rect x="300" y="160" width="18" height="18" fill="#7db68e" stroke="white" stroke-width="0"/><rect x="320" y="160" width="18" height="18" fill="#434343" stroke="white" stroke-width="0"/><rect x="0" y="180" width="18" height="18" fill="#bde5c4" stroke="white" stroke-width="0"/><rect x="20" y="180" width="18" height="18" fill="#434343" stroke="white" stroke-width="0"/><rect x="40" y="180" width="18" height="18" fill="#434343" stroke="white" stroke-width="0"/><rect x="60" y="180" width="18" height="18" fill="#434343" stroke="white" stroke-width="0"/><rect x="80" y="180" width="18" height="18" fill="#434343" stroke="white" stroke-width="0"/><rect x="100" y="180" width="18" height="18" fill="#434343" stroke="white" stroke-width="0"/><rect x="120" y="180" width="18" height="18" fill="#434343" stroke="white" stroke-width="0"/><rect x="140" y="180" width="18" height="18" fill="#434343" stroke="white" stroke-width="0"/><rect x="160" y="180" width="18" height="18" fill="#434343" stroke="white" stroke-width="0"/><rect x="180" y="180" width="18" height="18" fill="#434343" stroke="white" stroke-width="0"/><rect x="200" y="180" width="18" height="18" fill="#434343" stroke="white" stroke-width="0"/><rect x="220" y="180" width="18" height="18" fill="#bde5c4" stroke="white" stroke-width="0"/><rect x="240" y="180" width="18" height="18" fill="#434343" stroke="white" stroke-width="0"/><rect x="260" y="180" width="18" height="18" fill="#6aa57c" stroke="white" stroke-width="0"/><rect x="280" y="180" width="18" height="18" fill="#91c8a0" stroke="white" stroke-width="0"/><rect x="300" y="180" width="18" height="18" fill="#609c73" stroke="white" stroke-width="0"/><rect x="320" y="180" width="18" height="18" fill="#9ad0a8" stroke="white" stroke-width="0"/><rect x="0" y="200" width="18" height="18" fill="#434343" stroke="white" stroke-width="0"/><rect x="20" y="200" width="18" height="18" fill="#434343" stroke="white" stroke-width="0"/><rect x="40" y="200" width="18" height="18" fill="#9ad0a8" stroke="white" stroke-width="0"/><rect x="60" y="200" width="18" height="18" fill="#434343" stroke="white" stroke-width="0"/><rect x="80" y="200" width="18" height="18" fill="#91c8a0" stroke="white" stroke-width="0"/><rect x="100" y="200" width="18" height="18" fill="#434343" stroke="white" stroke-width="0"/><rect x="120" y="200" width="18" height="18" fill="#434343" stroke="white" stroke-width="0"/><rect x="140" y="200" width="18" height="18" fill="#e5f5e0" stroke="white" stroke-width="0"/><rect x="160" y="200" width="18" height="18" fill="#e5f5e0" stroke="white" stroke-width="0"/><rect x="180" y="200" width="18" height="18" fill="#e5f5e0" stroke="white" stroke-width="0"/><rect x="200" y="200" width="18" height="18" fill="#e5f5e0" stroke="white" stroke-width="0"/><rect x="220" y="200" width="18" height="18" fill="#9ad0a8" stroke="white" stroke-width="0"/><rect x="240" y="200" width="18" height="18" fill="#434343" stroke="white" stroke-width="0"/><rect x="260" y="200" width="18" height="18" fill="#434343" stroke="white" stroke-width="0"/><rect x="280" y="200" width="18" height="18" fill="#a4d9b1" stroke="white" stroke-width="0"/><rect x="300" y="200" width="18" height="18" fill="#a4d9b1" stroke="white" stroke-width="0"/><rect x="320" y="200" width="18" height="18" fill="#e5f5e0" stroke="white" stroke-width="0"/><rect x="0" y="220" width="18" height="18" fill="#434343" stroke="white" stroke-width="0"/><rect x="20" y="220" width="18" height="18" fill="#434343" stroke="white" stroke-width="0"/><rect x="40" y="220" width="18" height="18" fill="#434343" stroke="white" stroke-width="0"/><rect x="60" y="220" width="18" height="18" fill="#434343" stroke="white" stroke-width="0"/><rect x="80" y="220" width="18" height="18" fill="#434343" stroke="white" stroke-width="0"/><rect x="100" y="220" width="18" height="18" fill="#434343" stroke="white" stroke-width="0"/><rect x="120" y="220" width="18" height="18" fill="#434343" stroke="white" stroke-width="0"/><rect x="140" y="220" width="18" height="18" fill="#434343" stroke="white" stroke-width="0"/><rect x="160" y="220" width="18" height="18" fill="#434343" stroke="white" stroke-width="0"/><rect x="180" y="220" width="18" height="18" fill="#434343" stroke="white" stroke-width="0"/><rect x="200" y="220" width="18" height="18" fill="#e5f5e0" stroke="white" stroke-width="0"/><rect x="220" y="220" width="18" height="18" fill="#434343" stroke="white" stroke-width="0"/><rect x="240" y="220" width="18" height="18" fill="#434343" stroke="white" stroke-width="0"/><rect x="260" y="220" width="18" height="18" fill="#434343" stroke="white" stroke-width="0"/><rect x="280" y="220" width="18" height="18" fill="#7db68e" stroke="white" stroke-width="0"/><rect x="300" y="220" width="18" height="18" fill="#1d5f36" stroke="white" stroke-width="0"/><rect x="320" y="220" width="18" height="18" fill="#434343" stroke="white" stroke-width="0"/><rect x="0" y="240" width="18" height="18" fill="#434343" stroke="white" stroke-width="0"/><rect x="20" y="240" width="18" height="18" fill="#434343" stroke="white" stroke-width="0"/><rect x="40" y="240" width="18" height="18" fill="#434343" stroke="white" stroke-width="0"/><rect x="60" y="240" width="18" height="18" fill="#434343" stroke="white" stroke-width="0"/><rect x="80" y="240" width="18" height="18" fill="#434343" stroke="white" stroke-width="0"/><rect x="100" y="240" width="18" height="18" fill="#434343" stroke="white" stroke-width="0"/><rect x="120" y="240" width="18" height="18" fill="#434343" stroke="white" stroke-width="0"/><rect x="140" y="240" width="18" height="18" fill="#434343" stroke="white" stroke-width="0"/><rect x="160" y="240" width="18" height="18" fill="#434343" stroke="white" stroke-width="0"/><rect x="180" y="240" width="18" height="18" fill="#434343" stroke="white" stroke-width="0"/><rect x="200" y="240" width="18" height="18" fill="#434343" stroke="white" stroke-width="0"/><rect x="220" y="240" width="18" height="18" fill="#a4d9b1" stroke="white" stroke-width="0"/><rect x="240" y="240" width="18" height="18" fill="#434343" stroke="white" stroke-width="0"/><rect x="260" y="240" width="18" height="18" fill="#434343" stroke="white" stroke-width="0"/><rect x="280" y="240" width="18" height="18" fill="#434343" stroke="white" stroke-width="0"/><rect x="300" y="240" width="18" height="18" fill="#bde5c4" stroke="white" stroke-width="0"/><rect x="320" y="240" width="18" height="18" fill="#a4d9b1" stroke="white" stroke-width="0"/><rect x="0" y="260" width="18" height="18" fill="#434343" stroke="white" stroke-width="0"/><rect x="20" y="260" width="18" height="18" fill="#434343" stroke="white" stroke-width="0"/><rect x="40" y="260" width="18" height="18" fill="#e5f5e0" stroke="white" stroke-width="0"/><rect x="60" y="260" width="18" height="18" fill="#434343" stroke="white" stroke-width="0"/><rect x="80" y="260" width="18" height="18" fill="#434343" stroke="white" stroke-width="0"/><rect x="100" y="260" width="18" height="18" fill="#434343" stroke="white" stroke-width="0"/><rect x="120" y="260" width="18" height="18" fill="#434343" stroke="white" stroke-width="0"/><rect x="140" y="260" width="18" height="18" fill="#434343" stroke="white" stroke-width="0"/><rect x="160" y="260" width="18" height="18" fill="#434343" stroke="white" stroke-width="0"/><rect x="180" y="260" width="18" height="18" fill="#434343" stroke="white" stroke-width="0"/><rect x="200" y="260" width="18" height="18" fill="#434343" stroke="white" stroke-width="0"/><rect x="220" y="260" width="18" height="18" fill="#434343" stroke="white" stroke-width="0"/><rect x="240" y="260" width="18" height="18" fill="#434343" stroke="white" stroke-width="0"/><rect x="260" y="260" width="18" height="18" fill="#91c8a0" stroke="white" stroke-width="0"/><rect x="280" y="260" width="18" height="18" fill="#434343" stroke="white" stroke-width="0"/><rect x="300" y="260" width="18" height="18" fill="#e5f5e0" stroke="white" stroke-width="0"/><rect x="320" y="260" width="18" height="18" fill="#a4d9b1" stroke="white" stroke-width="0"/><rect x="0" y="280" width="18" height="18" fill="#434343" stroke="white" stroke-width="0"/><rect x="20" y="280" width="18" height="18" fill="#434343" stroke="white" stroke-width="0"/><rect x="40" y="280" width="18" height="18" fill="#e5f5e0" stroke="white" stroke-width="0"/><rect x="60" y="280" width="18" height="18" fill="#434343" stroke="white" stroke-width="0"/><rect x="80" y="280" width="18" height="18" fill="#434343" stroke="white" stroke-width="0"/><rect x="100" y="280" width="18" height="18" fill="#434343" stroke="white" stroke-width="0"/><rect x="120" y="280" width="18" height="18" fill="#bde5c4" stroke="white" stroke-width="0"/><rect x="140" y="280" width="18" height="18" fill="#434343" stroke="white" stroke-width="0"/><rect x="160" y="280" width="18" height="18" fill="#434343" stroke="white" stroke-width="0"/><rect x="180" y="280" width="18" height="18" fill="#e5f5e0" stroke="white" stroke-width="0"/><rect x="200" y="280" width="18" height="18" fill="#434343" stroke="white" stroke-width="0"/><rect x="220" y="280" width="18" height="18" fill="#7db68e" stroke="white" stroke-width="0"/><rect x="240" y="280" width="18" height="18" fill="#434343" stroke="white" stroke-width="0"/><rect x="260" y="280" width="18" height="18" fill="#7db68e" stroke="white" stroke-width="0"/><rect x="280" y="280" width="18" height="18" fill="#87bf97" stroke="white" stroke-width="0"/><rect x="300" y="280" width="18" height="18" fill="#e5f5e0" stroke="white" stroke-width="0"/><rect x="320" y="280" width="18" height="18" fill="#74ad85" stroke="white" stroke-width="0"/></svg>